<?xml version="1.0" encoding="UTF-8" standalone="no"?>
<!-- Created with Inkscape (http://www.inkscape.org/) -->

<svg
   xmlns:dc="http://purl.org/dc/elements/1.1/"
   xmlns:cc="http://creativecommons.org/ns#"
   xmlns:rdf="http://www.w3.org/1999/02/22-rdf-syntax-ns#"
   xmlns:svg="http://www.w3.org/2000/svg"
   xmlns="http://www.w3.org/2000/svg"
   xmlns:xlink="http://www.w3.org/1999/xlink"
   xmlns:sodipodi="http://sodipodi.sourceforge.net/DTD/sodipodi-0.dtd"
   xmlns:inkscape="http://www.inkscape.org/namespaces/inkscape"
   width="420"
   height="200"
   id="svg2"
   version="1.1"
   inkscape:version="0.47 r22583"
   sodipodi:docname="New document 1">
  <defs
     id="defs4">
    <inkscape:perspective
       sodipodi:type="inkscape:persp3d"
       inkscape:vp_x="0 : 526.18109 : 1"
       inkscape:vp_y="0 : 1000 : 0"
       inkscape:vp_z="744.09448 : 526.18109 : 1"
       inkscape:persp3d-origin="372.04724 : 350.78739 : 1"
       id="perspective10" />
  </defs>
  <sodipodi:namedview
     id="base"
     pagecolor="#ffffff"
     bordercolor="#666666"
     borderopacity="1.0"
     inkscape:pageopacity="0.0"
     inkscape:pageshadow="2"
     inkscape:zoom="1.979899"
     inkscape:cx="241.98579"
     inkscape:cy="32.601306"
     inkscape:document-units="px"
     inkscape:current-layer="layer1"
     showgrid="false"
     inkscape:showpageshadow="true"
     height="744.09px"
     showborder="true"
     borderlayer="true"
     inkscape:window-width="1920"
     inkscape:window-height="1125"
     inkscape:window-x="0"
     inkscape:window-y="24"
     inkscape:window-maximized="1" />
  <metadata
     id="metadata7">
    <rdf:RDF>
      <cc:Work
         rdf:about="">
        <dc:format>image/svg+xml</dc:format>
        <dc:type
           rdf:resource="http://purl.org/dc/dcmitype/StillImage" />
        <dc:title></dc:title>
      </cc:Work>
    </rdf:RDF>
  </metadata>
  <g
     inkscape:label="Base"
     inkscape:groupmode="layer"
     id="layer1"
     transform="translate(-394.54531,-420.63083)"
     style="display:inline">
    <path
       sodipodi:type="inkscape:offset"
       inkscape:radius="4.0406103"
       inkscape:original="M 508.375 427.5625 C 504.991 427.5625 502.28125 430.3035 502.28125 433.6875 C 502.28125 436.9995 505.0725 439.8125 508.3125 439.8125 C 511.7685 439.8125 514.5 437.0715 514.5 433.6875 C 514.5 430.3035 511.759 427.5625 508.375 427.5625 z M 607.90625 427.5625 C 604.52225 427.5625 601.78125 430.3035 601.78125 433.6875 C 601.78125 436.9995 604.60375 439.8125 607.84375 439.8125 C 611.29975 439.8125 614.03125 437.0715 614.03125 433.6875 C 614.03125 430.3035 611.29025 427.5625 607.90625 427.5625 z M 411.84375 428.65625 L 411.34375 432.53125 L 412.34375 432.53125 C 417.09575 432.53125 418.125 432.88475 418.125 434.46875 C 418.125 435.11675 417.95775 435.76 417.09375 439 L 408.75 470.25 L 407.96875 473.28125 C 407.17675 476.30525 406.31175 476.75 401.34375 476.75 L 401.0625 476.75 L 400.53125 480.625 L 427.46875 480.625 L 427.96875 476.75 L 426.1875 476.75 C 421.4355 476.75 420.40625 476.3965 420.40625 474.8125 C 420.40625 474.1645 420.5735 473.418 421.4375 470.25 L 424.65625 458.25 L 430.4375 458.25 C 438.35749 458.25 443.2465 457.50925 447.0625 455.78125 C 452.67849 453.33325 455.90625 448.36999 455.90625 442.25 C 455.90625 437.93 454.10275 434.251 450.71875 431.875 C 447.47875 429.571 442.81124 428.65625 434.53125 428.65625 L 411.84375 428.65625 z M 435.09375 432.53125 L 436.34375 432.53125 C 440.44775 432.53125 443.03125 435.48575 443.03125 440.09375 C 443.03125 444.70175 441.07975 449.61175 438.34375 451.84375 C 436.32775 453.49975 433.2195 454.34375 429.1875 454.34375 L 425.6875 454.34375 L 430.5 436.34375 C 431.364 433.10375 432.06975 432.53125 435.09375 432.53125 z M 574.84375 433.84375 L 570.8125 447.21875 L 564.5625 447.21875 L 563.25 451.625 L 569.5 451.625 L 564.84375 467.46875 C 564.55575 468.54875 564.24725 469.477 564.03125 470.125 C 563.38325 472.285 563.03125 474.28825 563.03125 475.65625 C 563.03125 478.96825 566.059 481.625 569.875 481.625 C 573.547 481.625 577.1595 479.77525 580.6875 476.03125 C 582.1275 474.44725 582.8265 473.58225 585.5625 469.40625 L 582.90625 467.46875 C 580.17025 472.22075 576.84625 475.875 575.40625 475.875 C 574.83025 475.875 574.34375 475.24175 574.34375 474.59375 C 574.34375 474.08975 574.97975 471.54575 575.84375 468.59375 L 580.90625 451.625 L 589.09375 451.625 L 590.40625 447.21875 L 582.1875 447.21875 L 586.15625 433.84375 L 574.84375 433.84375 z M 700.5 442.25 C 697.404 442.25 694.5905 443.75325 691.0625 447.28125 C 688.4705 446.41725 686.46425 446.15625 683.65625 446.15625 C 674.00826 446.15625 667.3125 451.33401 667.3125 458.75 C 667.3125 461.63 668.408 463.6525 671 465.8125 C 665.38401 467.6125 662.34375 470.6215 662.34375 474.4375 C 662.34375 476.9575 663.41625 478.4595 666.65625 480.1875 C 660.46426 481.3395 657.59375 483.5875 657.59375 487.1875 C 657.59375 492.22749 663.84676 495.1875 674.71875 495.1875 C 687.67874 495.1875 694.75 490.93224 694.75 483.15625 C 694.75 478.47625 692.50599 475.88025 687.25 474.65625 C 685.522 474.29625 680.91749 473.7105 674.4375 473.0625 C 671.9895 472.8465 670.90625 472.137 670.90625 470.625 C 670.90625 469.401 672.3685 468.40625 674.3125 468.40625 C 674.8165 468.40625 675.67 468.44975 676.75 468.59375 C 679.27 468.95375 683.78825 469.3125 685.15625 469.3125 C 693.94024 469.3125 700.28125 464.58324 700.28125 458.03125 C 700.28125 454.14325 698.26575 450.81625 694.59375 448.65625 C 695.52975 447.43225 696.2705 446.9375 697.0625 446.9375 C 697.5665 446.9375 697.92125 447.29225 698.28125 448.15625 C 699.07325 450.31625 700.147 451.25 701.875 451.25 C 704.107 451.25 705.6875 449.54175 705.6875 447.09375 C 705.6875 444.21375 703.596 442.25 700.5 442.25 z M 467.65625 446.15625 C 457.00026 446.15625 447.0625 456.92976 447.0625 468.59375 C 447.0625 476.22574 452.22801 481.625 459.5 481.625 C 464.468 481.625 467.794 479.839 471.25 475.375 C 471.25 476.959 471.25275 477.1115 471.46875 477.6875 C 472.11675 480.0635 474.495 481.71875 477.375 481.71875 C 480.975 481.71875 484.19075 479.835 487.71875 475.875 C 489.66275 473.643 491.24475 471.4005 492.46875 469.3125 L 489.6875 467.53125 C 487.0235 471.70725 483.4115 475.59375 482.1875 475.59375 C 481.6835 475.59375 481.1875 475.0135 481.1875 474.4375 C 481.1875 473.9335 481.18625 473.933 481.90625 471.125 L 488.96875 447.21875 L 477.65625 447.21875 L 476.65625 450.6875 C 474.92825 447.6635 471.90425 446.15625 467.65625 446.15625 z M 547.96875 446.15625 C 542.71276 446.15625 538.58749 448.80676 533.1875 455.71875 L 535.5 446.21875 L 517.5 447.21875 L 517 450.59375 L 518.71875 450.59375 C 522.24675 450.59375 523.125 451.04375 523.125 452.84375 C 523.125 453.63575 522.82325 454.92025 522.03125 457.65625 L 515.1875 480.625 L 526.5 480.625 L 529.25 471.5 C 531.266 464.80401 533.05075 461.03475 536.21875 457.21875 C 538.95475 453.97875 541.3345 452.25 543.0625 452.25 C 544.1425 452.25 545.21875 453.189 545.21875 454.125 C 545.21875 454.629 544.9945 455.56675 544.5625 456.71875 L 540.09375 468.90625 C 538.94175 472.21825 538.65625 473.28425 538.65625 475.15625 C 538.65625 479.18825 541.536 481.71875 546 481.71875 C 551.25599 481.71875 555.64351 478.25549 561.1875 469.6875 L 558.40625 467.875 L 557.75 468.6875 C 553.934 474.01549 552.046 475.875 550.75 475.875 C 550.246 475.875 549.75 475.29475 549.75 474.71875 C 549.75 474.14275 549.74875 474.16 550.46875 472 L 553.84375 462.78125 C 555.49975 458.38925 556.09375 455.9385 556.09375 453.5625 C 556.09375 449.2425 552.72075 446.15625 547.96875 446.15625 z M 647.96875 446.15625 C 642.71276 446.15625 638.61874 448.80676 633.21875 455.71875 L 635.53125 446.21875 L 617.53125 447.21875 L 617.03125 450.59375 L 618.75 450.59375 C 622.278 450.59375 623.15625 451.04375 623.15625 452.84375 C 623.15625 453.63575 622.8545 454.92025 622.0625 457.65625 L 615.21875 480.625 L 626.53125 480.625 L 629.25 471.5 C 631.266 464.80401 633.082 461.03475 636.25 457.21875 C 638.986 453.97875 641.36575 452.25 643.09375 452.25 C 644.17375 452.25 645.25 453.189 645.25 454.125 C 645.25 454.629 645.02575 455.56675 644.59375 456.71875 L 640.125 468.90625 C 638.973 472.21825 638.6875 473.28425 638.6875 475.15625 C 638.6875 479.18825 641.56725 481.71875 646.03125 481.71875 C 651.28724 481.71875 655.67476 478.25549 661.21875 469.6875 L 658.4375 467.875 L 657.78125 468.6875 C 653.96525 474.01549 652.07725 475.875 650.78125 475.875 C 650.27725 475.875 649.78125 475.29475 649.78125 474.71875 C 649.78125 474.14275 649.78 474.16 650.5 472 L 653.875 462.78125 C 655.531 458.38925 656.125 455.9385 656.125 453.5625 C 656.125 449.2425 652.72075 446.15625 647.96875 446.15625 z M 512.28125 446.21875 L 493.0625 447.21875 L 492.53125 450.59375 L 494.28125 450.59375 C 497.80925 450.59375 498.65625 451.04375 498.65625 452.84375 C 498.65625 453.63575 498.38575 454.99225 497.59375 457.65625 L 493.90625 469.90625 C 492.97025 473.07425 492.84375 473.85075 492.84375 475.21875 C 492.84375 478.96275 495.9925 481.71875 500.3125 481.71875 C 505.78449 481.71875 510.32275 478.11424 515.21875 469.90625 L 512.40625 467.875 C 508.95025 473.34699 506.59625 476.03125 505.15625 476.03125 C 504.50825 476.03125 504 475.523 504 474.875 C 504 474.299 504.07075 474.07575 504.71875 471.84375 L 512.28125 446.21875 z M 611.78125 446.21875 L 592.5625 447.21875 L 592.0625 450.59375 L 593.78125 450.59375 C 597.30925 450.59375 598.1875 451.04375 598.1875 452.84375 C 598.1875 453.63575 597.88575 454.99225 597.09375 457.65625 L 593.4375 469.90625 C 592.5015 473.07425 592.34375 473.85075 592.34375 475.21875 C 592.34375 478.96275 595.52375 481.71875 599.84375 481.71875 C 605.31574 481.71875 609.854 478.11424 614.75 469.90625 L 611.9375 467.875 C 608.4815 473.34699 606.09625 476.03125 604.65625 476.03125 C 604.00825 476.03125 603.53125 475.523 603.53125 474.875 C 603.53125 474.299 603.602 474.07575 604.25 471.84375 L 611.78125 446.21875 z M 685.15625 449.53125 C 687.74825 449.53125 689.625 451.673 689.625 454.625 C 689.625 457.001 688.902 460.10225 687.75 462.40625 C 686.67 464.71025 685.016 465.875 683 465.875 C 680.12 465.875 678.34375 463.9275 678.34375 460.6875 C 678.34375 457.9515 679.11025 454.929 680.40625 452.625 C 681.55825 450.609 683.14025 449.53125 685.15625 449.53125 z M 469.9375 450.09375 C 472.6015 450.09375 474.40625 452.24775 474.40625 455.34375 C 474.40625 458.94375 472.81625 465.017 470.65625 469.625 C 468.56825 474.233 465.9955 476.59375 463.1875 476.59375 C 460.5235 476.59375 458.78125 474.36225 458.78125 470.90625 C 458.78125 467.09025 460.2245 461.32 462.3125 457 C 464.5445 452.32 466.9855 450.09375 469.9375 450.09375 z M 672.5 482.5625 C 675.596 482.5625 681.147 483.068 682.875 483.5 C 685.107 484.076 686.03125 485.022 686.03125 486.75 C 686.03125 490.062 682.22174 491.78125 675.09375 491.78125 C 669.40576 491.78125 666.4375 490.062 666.4375 486.75 C 666.4375 483.942 668.468 482.5625 672.5 482.5625 z M 708.78125 497.875 C 705.39725 497.875 702.65625 500.616 702.65625 504 C 702.65625 507.312 705.4475 510.09375 708.6875 510.09375 C 712.1435 510.09375 714.90625 507.384 714.90625 504 C 714.90625 500.616 712.16525 497.875 708.78125 497.875 z M 431.5 498.9375 L 431 502.84375 L 432.3125 502.84375 C 436.9925 502.84375 438 503.19725 438 504.78125 C 438 505.42925 437.7105 506.8645 437.0625 509.3125 L 428.71875 540.5625 C 427.35075 545.4585 427.326 545.45525 426.75 546.03125 C 425.958 546.75125 424.24275 547.03125 421.21875 547.03125 L 420.9375 547.03125 L 420.4375 550.9375 L 444.46875 550.9375 C 456.99674 550.9375 464.21426 548.90274 470.40625 543.71875 C 477.24624 537.95876 481.25 528.97274 481.25 519.46875 C 481.25 512.05276 478.68675 506.42475 473.71875 502.96875 C 469.54275 500.01675 465.12924 498.9375 457.28125 498.9375 L 431.5 498.9375 z M 455.5625 502.84375 L 457.15625 502.84375 C 464.14024 502.84375 467.875 507.02701 467.875 514.875 C 467.875 523.01099 464.99125 533.37726 461.03125 539.28125 C 457.57525 544.39324 452.47324 547.03125 446.28125 547.03125 L 444.1875 547.03125 C 441.4515 547.03125 440.375 546.53375 440.375 545.09375 C 440.375 544.58975 440.45525 544.37325 441.03125 541.78125 L 450.21875 507.375 C 451.22675 503.775 452.2505 502.84375 455.5625 502.84375 z M 676.71875 504.125 L 672.6875 517.53125 L 666.4375 517.53125 L 665.125 521.90625 L 671.40625 521.90625 L 666.71875 537.75 C 666.43075 538.83 666.12225 539.75825 665.90625 540.40625 C 665.25825 542.56625 664.90625 544.60075 664.90625 545.96875 C 664.90625 549.28075 667.934 551.9375 671.75 551.9375 C 675.422 551.9375 679.0345 550.0565 682.5625 546.3125 C 684.0025 544.7285 684.7015 543.8635 687.4375 539.6875 L 684.78125 537.75 C 682.04525 542.502 678.72125 546.1875 677.28125 546.1875 C 676.70525 546.1875 676.21875 545.523 676.21875 544.875 C 676.21875 544.371 676.85475 541.85825 677.71875 538.90625 L 682.78125 521.90625 L 690.96875 521.90625 L 692.28125 517.53125 L 684.0625 517.53125 L 688.03125 504.125 L 676.71875 504.125 z M 799.84375 512.5625 C 796.74775 512.5625 793.9655 514.06575 790.4375 517.59375 C 787.8455 516.72975 785.808 516.4375 783 516.4375 C 773.35201 516.4375 766.65625 521.61526 766.65625 529.03125 C 766.65625 531.91125 767.75175 533.93375 770.34375 536.09375 C 764.72776 537.89375 761.6875 540.934 761.6875 544.75 C 761.6875 547.27 762.79125 548.772 766.03125 550.5 C 759.83926 551.652 756.9375 553.9 756.9375 557.5 C 756.9375 562.53999 763.22176 565.46875 774.09375 565.46875 C 787.05374 565.46875 794.09375 561.21349 794.09375 553.4375 C 794.09375 548.7575 791.84974 546.19275 786.59375 544.96875 C 784.86575 544.60875 780.26124 544.023 773.78125 543.375 C 771.33325 543.159 770.25 542.4495 770.25 540.9375 C 770.25 539.7135 771.71225 538.6875 773.65625 538.6875 C 774.16025 538.6875 775.01375 538.76225 776.09375 538.90625 C 778.61375 539.26625 783.16325 539.625 784.53125 539.625 C 793.31524 539.625 799.625 534.86449 799.625 528.3125 C 799.625 524.4245 797.6095 521.12875 793.9375 518.96875 C 794.8735 517.74475 795.61425 517.25 796.40625 517.25 C 796.91025 517.25 797.265 517.60475 797.625 518.46875 C 798.417 520.62875 799.49075 521.5625 801.21875 521.5625 C 803.45075 521.5625 805.03125 519.823 805.03125 517.375 C 805.03125 514.495 802.93975 512.5625 799.84375 512.5625 z M 502.5625 516.4375 C 490.46651 516.4375 479.8125 526.81701 479.8125 538.625 C 479.8125 547.26499 484.99601 551.9375 494.5 551.9375 C 501.05199 551.9375 506.37025 549.48699 510.90625 544.375 L 508.40625 541.875 C 504.08625 546.195 501.21275 547.6875 497.46875 547.6875 C 493.65275 547.6875 491.25 545.1665 491.25 541.0625 C 491.25 540.1985 491.26225 539.77825 491.40625 537.90625 C 495.65425 537.69025 498.741 537.1955 502.125 536.1875 C 510.33299 533.8115 514.375 530.19624 514.375 525.15625 C 514.375 520.18825 509.33049 516.4375 502.5625 516.4375 z M 570.78125 516.4375 C 558.54126 516.4375 548.15625 526.09276 548.15625 537.46875 C 548.15625 541.64475 549.836 545.83325 552.5 548.28125 C 555.02 550.65725 558.74525 551.9375 563.28125 551.9375 C 576.31324 551.9375 586.34375 542.57424 586.34375 530.40625 C 586.34375 526.08625 584.9045 522.57575 582.3125 520.34375 C 579.5045 517.89575 575.17325 516.4375 570.78125 516.4375 z M 616.28125 516.4375 C 611.52925 516.4375 608.0265 518.96026 603.5625 525.65625 L 605.78125 516.53125 L 587.78125 517.53125 L 587.28125 520.90625 L 589 520.90625 C 592.528 520.90625 593.40625 521.35625 593.40625 523.15625 C 593.40625 523.94825 593.1045 525.30475 592.3125 527.96875 L 585.46875 550.9375 L 596.78125 550.9375 L 599.8125 540.9375 C 601.8285 534.02551 605.4095 527.3215 608.9375 523.9375 C 610.0175 522.8575 611.2365 522.0625 611.8125 522.0625 C 612.3165 522.0625 612.5625 522.352 612.5625 523 C 612.5625 524.08 612.606 524.64275 612.75 525.21875 C 613.254 527.30675 615.28975 528.75 617.59375 528.75 C 620.68975 528.75 623 526.16525 623 522.78125 C 623 518.96525 620.31325 516.4375 616.28125 516.4375 z M 640.3125 516.4375 C 629.65651 516.4375 619.71875 527.24226 619.71875 538.90625 C 619.71875 546.53824 624.88426 551.9375 632.15625 551.9375 C 637.12425 551.9375 640.45025 550.1515 643.90625 545.6875 C 643.90625 547.2715 643.909 547.39275 644.125 547.96875 C 644.773 550.34475 647.15125 552 650.03125 552 C 653.63125 552 656.847 550.1475 660.375 546.1875 C 662.319 543.9555 663.901 541.713 665.125 539.625 L 662.34375 537.84375 C 659.67975 542.01975 656.06775 545.90625 654.84375 545.90625 C 654.33975 545.90625 653.84375 545.326 653.84375 544.75 C 653.84375 544.246 653.8425 544.2455 654.5625 541.4375 L 661.59375 517.53125 L 650.3125 517.53125 L 649.3125 520.96875 C 647.5845 517.94475 644.5605 516.4375 640.3125 516.4375 z M 748.34375 516.4375 C 743.08776 516.4375 738.99374 519.11926 733.59375 526.03125 L 735.875 516.53125 L 717.875 517.53125 L 717.375 520.90625 L 719.125 520.90625 C 722.653 520.90625 723.5 521.35625 723.5 523.15625 C 723.5 523.94825 723.2295 525.23275 722.4375 527.96875 L 715.59375 550.9375 L 726.875 550.9375 L 729.625 541.78125 C 731.641 535.08526 733.42575 531.34725 736.59375 527.53125 C 739.32975 524.29125 741.7095 522.5625 743.4375 522.5625 C 744.5175 522.5625 745.59375 523.5015 745.59375 524.4375 C 745.59375 524.9415 745.40075 525.87925 744.96875 527.03125 L 740.5 539.1875 C 739.348 542.4995 739.0625 543.59675 739.0625 545.46875 C 739.0625 549.50075 741.94225 552 746.40625 552 C 751.66224 552 756.04976 548.56799 761.59375 540 L 758.78125 538.1875 L 758.125 538.96875 C 754.309 544.29674 752.45225 546.1875 751.15625 546.1875 C 750.65225 546.1875 750.15625 545.60725 750.15625 545.03125 C 750.15625 544.45525 750.155 544.44125 750.875 542.28125 L 754.25 533.0625 C 755.906 528.6705 756.46875 526.251 756.46875 523.875 C 756.46875 519.555 753.09575 516.4375 748.34375 516.4375 z M 536.0625 516.53125 C 523.82251 516.53125 513.53125 526.60101 513.53125 538.625 C 513.53125 546.76099 519.36551 551.9375 528.4375 551.9375 C 534.77349 551.9375 539.97226 549.07374 545.15625 542.59375 L 542.5625 540.34375 C 538.3145 545.31175 534.7685 547.5625 531.3125 547.5625 C 527.8565 547.5625 525.40625 544.74125 525.40625 540.78125 C 525.40625 536.31725 526.99625 530.11625 529.15625 526.15625 C 531.38825 522.05225 534.13225 519.90625 537.15625 519.90625 C 538.88425 519.90625 540.1875 520.6075 540.1875 521.6875 C 540.1875 522.1915 539.9605 522.41175 539.3125 522.84375 C 537.2965 524.06775 536.59375 525.234 536.59375 527.25 C 536.59375 530.274 538.8755 532.4375 542.1875 532.4375 C 545.9315 532.4375 548.375 529.75075 548.375 525.71875 C 548.375 520.17476 543.55049 516.53125 536.0625 516.53125 z M 712.65625 516.53125 L 693.4375 517.53125 L 692.9375 520.90625 L 694.65625 520.90625 C 698.18425 520.90625 699.0625 521.35625 699.0625 523.15625 C 699.0625 523.94825 698.76075 525.30475 697.96875 527.96875 L 694.3125 540.21875 C 693.3765 543.38675 693.21875 544.16325 693.21875 545.53125 C 693.21875 549.27525 696.39875 552 700.71875 552 C 706.19074 552 710.729 548.42674 715.625 540.21875 L 712.8125 538.1875 C 709.3565 543.65949 706.97125 546.3125 705.53125 546.3125 C 704.88325 546.3125 704.375 545.8355 704.375 545.1875 C 704.375 544.6115 704.44575 544.38825 705.09375 542.15625 L 712.65625 516.53125 z M 502.4375 519.84375 C 504.3815 519.84375 505.59375 521.13075 505.59375 523.21875 C 505.59375 527.17875 501.98975 531.503 497.09375 533.375 C 495.65375 533.879 494.4385 534.17125 492.0625 534.53125 C 493.7185 525.74726 497.9735 519.84375 502.4375 519.84375 z M 570.5 519.84375 C 573.308 519.84375 575.15625 522.0535 575.15625 525.4375 C 575.15625 529.1815 573.5785 536.24126 571.5625 541.28125 C 569.6185 546.32124 567.0335 548.84375 563.9375 548.84375 C 561.0575 548.84375 559.34375 546.75625 559.34375 543.15625 C 559.34375 538.83625 560.6905 532.286 562.5625 527.75 C 564.7225 522.56601 567.404 519.84375 570.5 519.84375 z M 784.53125 519.84375 C 787.12325 519.84375 788.96875 521.9855 788.96875 524.9375 C 788.96875 527.3135 788.277 530.41475 787.125 532.71875 C 786.045 535.02275 784.391 536.1875 782.375 536.1875 C 779.495 536.1875 777.6875 534.24 777.6875 531 C 777.6875 528.264 778.48525 525.2415 779.78125 522.9375 C 780.93325 520.9215 782.51525 519.84375 784.53125 519.84375 z M 642.59375 520.40625 C 645.25775 520.40625 647.0625 522.56025 647.0625 525.65625 C 647.0625 529.25625 645.4725 535.29825 643.3125 539.90625 C 641.2245 544.51425 638.65175 546.90625 635.84375 546.90625 C 633.17975 546.90625 631.4375 544.67475 631.4375 541.21875 C 631.4375 537.40275 632.88075 531.6325 634.96875 527.3125 C 637.20075 522.6325 639.64175 520.40625 642.59375 520.40625 z M 771.84375 552.875 C 774.93975 552.875 780.49075 553.3805 782.21875 553.8125 C 784.45075 554.3885 785.375 555.3345 785.375 557.0625 C 785.375 560.3745 781.56549 562.09375 774.4375 562.09375 C 768.74951 562.09375 765.8125 560.3745 765.8125 557.0625 C 765.8125 554.2545 767.81175 552.875 771.84375 552.875 z "
       xlink:href="#text2816"
       style="font-size:72px;font-style:italic;font-variant:normal;font-weight:bold;font-stretch:normal;fill:#000000;fill-opacity:1;stroke:none;font-family:Century Schoolbook L;-inkscape-font-specification:Bitstream Charter Italic"
       id="path2832"
       inkscape:href="#text2816"
       d="m 508.375,433.53125 c -5.5659,0 -10.125,4.61523 -10.125,10.15625 0,3.90196 2.24183,7.23583 5.46875,8.9375 l -10.875,0.5625 a 4.0410144,4.0410144 0 0 0 -1.8125,0.5625 4.0410144,4.0410144 0 0 0 -2.0625,-0.5625 l -11.3125,0 A 4.0410144,4.0410144 0 0 0 475.25,454 c -2.24602,-1.22393 -4.85458,-1.875 -7.59375,-1.875 -2.77723,0 -5.42501,0.64527 -7.9375,1.625 0.0407,-0.51104 0.21875,-0.97979 0.21875,-1.5 0,-5.42957 -2.46124,-10.53861 -6.875,-13.65625 -0.0115,-0.008 -0.0198,-0.0231 -0.0312,-0.0312 -4.31743,-3.0537 -9.94518,-3.9375 -18.5,-3.9375 l -22.6875,0 a 4.0410144,4.0410144 0 0 0 -4,3.5 l -0.5,3.875 a 4.0410144,4.0410144 0 0 0 4,4.5625 l 1,0 c 0.80062,0 0.64747,0.0275 1.1875,0.0625 -0.13155,0.52362 -0.0126,0.10199 -0.34375,1.34375 l -8.34375,31.25 a 4.0410144,4.0410144 0 0 0 0,0.0312 l -0.78125,3 0,0.0312 c -0.0602,0.22334 -0.05,0.18678 -0.0937,0.3125 0.0197,-0.0647 -0.55748,0.125 -2.625,0.125 l -0.28125,0 a 4.0410144,4.0410144 0 0 0 -4,3.46875 l -0.53125,3.875 a 4.0410144,4.0410144 0 0 0 4,4.59375 l 26.9375,0 a 4.0410144,4.0410144 0 0 0 4,-3.5 l 0.5,-3.875 a 4.0410144,4.0410144 0 0 0 -4,-4.5625 l -1.78125,0 c -0.80062,0 -0.64747,-0.0275 -1.1875,-0.0625 0.13071,-0.52873 0.0152,-0.13903 0.34375,-1.34375 a 4.0410144,4.0410144 0 0 0 0,-0.0312 l 2.40625,-9 2.6875,0 c 5.73104,0 10.12387,-0.40617 13.84375,-1.34375 -0.74303,2.46152 -1.25,5.01687 -1.25,7.65625 0,9.45518 7.19673,17.0625 16.46875,17.0625 3.76476,0 7.15467,-1.20998 10.15625,-3.3125 1.92141,2.12404 4.73051,3.40625 7.71875,3.40625 4.62668,0 8.74729,-2.45338 12.4375,-6.28125 1.84196,3.76563 6.00264,6.28125 10.5,6.28125 3.62321,0 7.17941,-1.30247 10.1875,-3.6875 0.25249,-0.20019 0.47186,-0.50503 0.71875,-0.71875 a 4.0410144,4.0410144 0 0 0 3.96875,3.3125 l 11.3125,0 a 4.0410144,4.0410144 0 0 0 3.875,-2.875 l 2.75,-9.125 c 1.82686,-6.06778 3.29566,-9.04142 5.78125,-12.1875 L 536.3125,477.5 a 4.0410144,4.0410144 0 0 0 -0.0312,0.0937 c -1.17233,3.37044 -1.65625,5.27968 -1.65625,7.5625 0,2.97797 1.18617,5.8935 3.34375,7.8125 2.15758,1.919 5.03575,2.78125 8.03125,2.78125 3.51547,0 6.99987,-1.28151 10,-3.65625 1.26092,-0.99808 2.43596,-2.27198 3.625,-3.625 1.38427,4.24609 5.55809,7.1875 10.25,7.1875 5.02896,0 9.73341,-2.58124 13.75,-6.84375 a 4.0410144,4.0410144 0 0 0 0.0625,-0.0625 c 1.49472,-1.64419 2.48128,-2.89906 5.25,-7.125 a 4.0410144,4.0410144 0 0 0 0.0937,-0.15625 c -0.27212,1.23885 -0.71875,2.77717 -0.71875,3.75 0,6.03195 5.49274,10.53125 11.53125,10.53125 3.62321,0 7.17941,-1.30247 10.1875,-3.6875 0.41171,-0.32643 0.75903,-0.82504 1.15625,-1.1875 a 4.0410144,4.0410144 0 0 0 4.03125,3.78125 l 11.3125,0 a 4.0410144,4.0410144 0 0 0 3.875,-2.875 l 2.71875,-9.125 c 1.82861,-6.07358 3.30473,-9.0552 5.8125,-12.21875 l -2.59375,7.0625 a 4.0410144,4.0410144 0 0 0 -0.0312,0.0937 c -1.17233,3.37044 -1.65625,5.27968 -1.65625,7.5625 0,2.97797 1.18617,5.8935 3.34375,7.8125 2.15758,1.919 5.03575,2.78125 8.03125,2.78125 3.0261,0 5.96659,-1.12335 8.65625,-2.90625 -0.70099,1.35794 -1.125,2.85528 -1.125,4.34375 0,4.19103 3.02323,7.78603 6.8125,9.5625 3.78927,1.77647 8.54106,2.46875 14.34375,2.46875 6.92222,0 12.60678,-1.03505 16.96875,-3.65625 4.36197,-2.6212 7.09375,-7.29345 7.09375,-12.40625 0,-2.98581 -0.8134,-5.97785 -2.78125,-8.21875 -0.9741,-1.10925 -2.12925,-1.97446 -3.4375,-2.65625 2.16212,-0.6664 4.16036,-1.62738 5.875,-2.90625 3.5302,-2.63301 5.875,-6.76426 5.875,-11.34375 0,-1.09541 -0.19136,-2.14618 -0.4375,-3.1875 3.32068,-1.01626 5.84375,-4.25231 5.84375,-7.75 0,-2.41812 -0.97617,-4.8078 -2.71875,-6.4375 -1.74258,-1.6297 -4.0977,-2.4375 -6.5,-2.4375 -3.74828,0 -7.19014,1.75974 -10.53125,4.65625 -2.06506,-0.47542 -4.09585,-0.75 -6.3125,-0.75 -5.54682,0 -10.50766,1.4571 -14.25,4.34375 -3.74234,2.88665 -6.125,7.35719 -6.125,12.28125 0,1.95233 0.51026,3.83339 1.40625,5.5625 -0.73319,0.44781 -1.39495,0.96004 -2.03125,1.5 l -2,-1.3125 A 4.0410144,4.0410144 0 0 0 657.75,473.90625 c 1.62601,-4.36126 2.40625,-7.37445 2.40625,-10.34375 0,-6.44272 -5.68601,-11.4375 -12.1875,-11.4375 -3.01722,0 -5.9908,0.88895 -8.71875,2.46875 a 4.0410144,4.0410144 0 0 0 -3.9375,-2.40625 l -18,1 a 4.0410144,4.0410144 0 0 0 -2.15625,0.78125 4.0410144,4.0410144 0 0 0 -2.3125,-1.65625 c 3.0539,-1.77096 5.21875,-4.90205 5.21875,-8.625 0,-5.5659 -4.59035,-10.15625 -10.15625,-10.15625 -5.5659,0 -10.15625,4.59035 -10.15625,10.15625 0,3.92161 2.26135,7.24252 5.5,8.9375 l -10.90625,0.5625 a 4.0410144,4.0410144 0 0 0 -0.84375,0.15625 4.0410144,4.0410144 0 0 0 -1.09375,-0.15625 l -2.8125,0 2.4375,-8.1875 a 4.0410144,4.0410144 0 0 0 -3.875,-5.1875 l -11.3125,0 a 4.0410144,4.0410144 0 0 0 -3.875,2.875 l -3.15625,10.5 -3.25,0 a 4.0410144,4.0410144 0 0 0 -3.875,2.875 l -1.1875,4 c -1.61279,-4.64916 -6.27706,-7.9375 -11.53125,-7.9375 -3.03916,0 -6.03107,0.8671 -8.78125,2.46875 a 4.0410144,4.0410144 0 0 0 -3.90625,-2.40625 l -18,1 a 4.0410144,4.0410144 0 0 0 -1.8125,0.53125 4.0410144,4.0410144 0 0 0 -2.125,-1.40625 c 3.04155,-1.7741 5.1875,-4.91125 5.1875,-8.625 0,-5.5659 -4.59035,-10.15625 -10.15625,-10.15625 z m -73.28125,13.03125 1.25,0 c 1.08238,0 1.46318,0.25578 1.84375,0.6875 0.38057,0.43172 0.8125,1.29488 0.8125,2.84375 0,3.46719 -2.00257,7.63285 -3.21875,8.625 -0.75699,0.62182 -2.48769,1.13779 -4.78125,1.375 l 3.40625,-12.71875 c 0.12459,-0.46722 0.20158,-0.57901 0.28125,-0.78125 0.14583,-0.009 0.13371,-0.0312 0.40625,-0.0312 z m 178.84375,16.625 a 4.0410144,4.0410144 0 0 0 3.09375,1.4375 l 1.65625,0 c -0.13253,0.60287 -0.11009,0.52245 -0.5,1.875 -0.006,0.0211 0.006,0.01 0,0.0312 l -2.65625,8.9375 -1.21875,-0.875 a 4.0410144,4.0410144 0 0 0 -3.5625,-0.5625 l 3.1875,-10.84375 z m 71.21875,0.375 c 0.36618,0 0.4375,-0.17694 0.4375,1.0625 0,1.55631 -0.66294,4.35713 -1.46875,5.96875 a 4.0410144,4.0410144 0 0 0 -0.0312,0.0937 c -0.62921,1.34232 -0.63407,1.15625 -1.09375,1.15625 -0.52923,0 -0.41116,-0.0679 -0.40625,-0.0625 0.005,0.005 -0.21875,-0.21214 -0.21875,-1.09375 0,-1.96849 0.6506,-4.47946 1.53125,-6.0625 0.0124,-0.0217 0.0193,-0.0104 0.0312,-0.0312 0.6327,-1.10306 0.6535,-1.03125 1.21875,-1.03125 z m -170.84375,0.0312 A 4.0410144,4.0410144 0 0 0 517,464.625 l 1.65625,0 c -0.13253,0.60287 -0.11009,0.52245 -0.5,1.875 -0.006,0.0211 0.006,0.01 0,0.0312 l -2.59375,8.625 -0.78125,-0.5625 a 4.0410144,4.0410144 0 0 0 -3.53125,-0.5625 l 3.0625,-10.4375 z m 45.75,0.5 a 4.0410144,4.0410144 0 0 0 3.1875,1.5625 l 0.875,0 -2.75,9.3125 -0.75,-0.46875 a 4.0410144,4.0410144 0 0 0 -2.90625,-0.59375 c 1.53271,-4.11102 2.2622,-7.01046 2.34375,-9.8125 z m -90.125,0.0312 c 0.59032,0.61617 0.39566,0.67856 0.4375,1.21875 0,2.41026 -1.47066,8.49992 -3.375,12.5625 a 4.0410144,4.0410144 0 0 0 -0.0312,0.0625 c -0.89357,1.97201 -1.83266,3.2572 -2.53125,3.90625 -0.69859,0.64905 -0.97834,0.6875 -1.25,0.6875 -0.0726,-0.0935 -0.375,-0.60724 -0.375,-1.65625 0,-2.7972 1.33301,-8.44868 3.125,-12.15625 a 4.0410144,4.0410144 0 0 0 0.0312,0 c 0.97679,-2.04811 1.91528,-3.3532 2.59375,-3.96875 0.67847,-0.61555 0.91474,-0.65625 1.375,-0.65625 z m 21.125,0.21875 a 4.0410144,4.0410144 0 0 0 1.46875,0.28125 l 1.65625,0 c -0.12748,0.61113 -0.0804,0.56883 -0.46875,1.875 L 491.5,473.90625 A 4.0410144,4.0410144 0 0 0 488.3125,473.75 l 2.75,-9.40625 z m 100.75,0.28125 a 4.0410144,4.0410144 0 0 0 0.25,0 l 1.625,0 c -0.1345,0.62052 -0.077,0.55725 -0.46875,1.875 l -3.65625,12.25 c -0.0142,0.0479 -0.0174,0.0466 -0.0312,0.0937 a 4.0410144,4.0410144 0 0 0 -1.59375,-2.6875 l -2.65625,-1.9375 a 4.0410144,4.0410144 0 0 0 -3.75,-0.5625 l 2.40625,-8 5.15625,0 A 4.0410144,4.0410144 0 0 0 591.8125,464.625 z M 672.5,496.59375 c 2.10933,0 5.51563,0.41567 7.46875,0.65625 -1.19379,0.26726 -2.72393,0.5 -4.875,0.5 -2.43689,0 -3.97574,-0.48185 -4.4375,-0.75 -0.23088,-0.13407 -0.10556,-0.14877 -0.0937,-0.125 0.15889,-0.06 0.59984,-0.28125 1.9375,-0.28125 z m 36.28125,7.25 c -5.5659,0 -10.15625,4.59035 -10.15625,10.15625 0,3.92867 2.30076,7.25701 5.5625,8.9375 L 693.21875,523.5 a 4.0410144,4.0410144 0 0 0 -0.28125,0.0312 4.0410144,4.0410144 0 0 0 -0.125,0 4.0410144,4.0410144 0 0 0 -0.53125,-0.0312 l -2.8125,0 2.4375,-8.21875 a 4.0410144,4.0410144 0 0 0 -3.875,-5.1875 l -11.3125,0 a 4.0410144,4.0410144 0 0 0 -3.875,2.875 L 669.6875,523.5 l -3.25,0 A 4.0410144,4.0410144 0 0 0 664,524.3125 4.0410144,4.0410144 0 0 0 661.59375,523.5 l -11.28125,0 a 4.0410144,4.0410144 0 0 0 -2.40625,0.78125 c -2.24602,-1.22393 -4.85458,-1.875 -7.59375,-1.875 -5.42523,0 -10.44636,2.11928 -14.5625,5.5 -0.49687,-0.96363 -1.02529,-1.91374 -1.8125,-2.65625 -2.01572,-1.90128 -4.79587,-2.84375 -7.65625,-2.84375 -2.45464,0 -4.8619,0.76432 -7.09375,1.96875 a 4.0410144,4.0410144 0 0 0 -3.625,-1.875 l -18,1 a 4.0410144,4.0410144 0 0 0 -3.6875,3.03125 c -3.63918,-2.71395 -8.28163,-4.125 -13.09375,-4.125 -7.62129,0 -14.60075,3.21415 -19.53125,8.25 -0.86318,-1.90948 -2.14257,-3.59342 -3.8125,-4.84375 -3.04116,-2.27701 -6.97564,-3.3125 -11.375,-3.3125 -7.29953,0 -13.99619,3.0188 -18.84375,7.84375 -0.89027,-1.8407 -2.18449,-3.45198 -3.8125,-4.65625 -2.93535,-2.17134 -6.71333,-3.28125 -10.84375,-3.28125 -6.54122,0 -12.60653,2.53125 -17.34375,6.5625 -0.12762,-8.10985 -3.18624,-15.10844 -9.15625,-19.28125 -0.006,-0.004 0.006,-0.0271 0,-0.0312 -0.008,-0.005 -0.0237,0.005 -0.0312,0 -4.88757,-3.44677 -10.54419,-4.75 -18.75,-4.75 l -25.78125,0 a 4.0410144,4.0410144 0 0 0 -4,3.53125 l -0.5,3.90625 a 4.0410144,4.0410144 0 0 0 4,4.53125 l 1.3125,0 c 0.78896,0 0.62702,0.0273 1.15625,0.0625 -0.12343,0.61998 -0.0728,0.43832 -0.3125,1.34375 l -8.34375,31.1875 0,0.0625 c -0.52353,1.872 -0.72354,2.57582 -0.90625,3.15625 -0.49611,0.102 -1.36112,0.3125 -2.6875,0.3125 l -0.28125,0 a 4.0410144,4.0410144 0 0 0 -4,3.53125 l -0.5,3.90625 a 4.0410144,4.0410144 0 0 0 4,4.53125 l 24.03125,0 c 12.9655,0 21.55329,-2.31424 28.53125,-8.15625 1.25385,-1.05588 2.26755,-2.33858 3.34375,-3.5625 0.7265,3.24207 2.1733,6.1471 4.53125,8.28125 3.43647,3.11031 8.21083,4.4375 13.625,4.4375 6.8731,0 13.00079,-2.66902 17.9375,-7.5 0.71043,1.04762 1.52109,2.03021 2.46875,2.875 3.46895,3.09237 8.22673,4.625 13.53125,4.625 6.80721,0 12.85591,-3.22536 18.125,-9 0.85437,1.56121 1.87784,3.00472 3.1875,4.21875 l -0.0312,0.0312 c 0.0167,0.0157 0.0458,0.0156 0.0625,0.0312 3.43565,3.21017 8.22936,4.71875 13.5,4.71875 7.18761,0 13.68002,-2.60057 18.53125,-6.875 l -0.21875,0.6875 a 4.0410144,4.0410144 0 0 0 3.875,5.1875 l 11.3125,0 a 4.0410144,4.0410144 0 0 0 3.875,-2.84375 l 3.03125,-10 a 4.0410144,4.0410144 0 0 0 0,-0.0625 c 1.47681,-5.06335 4.07402,-10.04494 6.375,-13.15625 1.46537,2.15398 3.86879,3.41791 6.46875,3.71875 -0.49946,2.04071 -0.84375,4.13323 -0.84375,6.28125 0,9.45518 7.19673,17.0625 16.46875,17.0625 3.77079,0 7.15124,-1.2347 10.15625,-3.34375 1.92141,2.12404 4.73051,3.40625 7.71875,3.40625 4.41136,0 8.39016,-2.23355 11.96875,-5.78125 1.80515,3.44537 5.60917,5.71875 9.75,5.71875 5.05188,0 9.7411,-2.62066 13.75,-6.875 a 4.0410144,4.0410144 0 0 0 0.0625,-0.0625 c 1.14005,-1.25405 2.43082,-3.1444 4,-5.4375 -0.0642,0.52899 -0.375,1.43469 -0.375,1.9375 0,6.03195 5.51223,10.5 11.53125,10.5 3.61551,0 7.17682,-1.31009 10.1875,-3.6875 0.25364,-0.20029 0.47075,-0.50479 0.71875,-0.71875 a 4.0410144,4.0410144 0 0 0 3.96875,3.34375 l 11.28125,0 a 4.0410144,4.0410144 0 0 0 3.875,-2.875 l 2.75,-9.15625 c 1.84344,-6.12284 3.30766,-9.06752 5.84375,-12.25 l -2.625,7.09375 a 4.0410144,4.0410144 0 0 0 -0.0312,0.0937 c -1.17492,3.37789 -1.65625,5.31093 -1.65625,7.59375 0,2.97797 1.18115,5.90226 3.34375,7.8125 2.1626,1.91024 5.04518,2.75 8.03125,2.75 2.51745,0 4.95925,-0.87538 7.28125,-2.125 -0.48436,1.15277 -0.78125,2.37108 -0.78125,3.59375 0,4.19938 3.04872,7.76694 6.84375,9.53125 3.79503,1.76431 8.54493,2.46875 14.34375,2.46875 6.92222,0 12.58176,-1.03274 16.9375,-3.65625 4.35574,-2.62351 7.09375,-7.29886 7.09375,-12.40625 0,-2.98581 -0.80891,-5.98539 -2.78125,-8.21875 -0.97076,-1.09922 -2.13975,-1.9498 -3.4375,-2.625 2.17232,-0.671 4.18839,-1.64747 5.90625,-2.9375 3.52153,-2.6445 5.84375,-6.77068 5.84375,-11.34375 0,-1.08487 -0.1951,-2.12589 -0.4375,-3.15625 3.34373,-1.0163 5.84375,-4.27687 5.84375,-7.78125 0,-2.41812 -0.96929,-4.81638 -2.71875,-6.4375 -1.74946,-1.62112 -4.11129,-2.40625 -6.5,-2.40625 -3.7444,0 -7.17223,1.76859 -10.5,4.65625 -2.06539,-0.48389 -4.10537,-0.78125 -6.34375,-0.78125 -5.54682,0 -10.50766,1.4571 -14.25,4.34375 -3.74234,2.88665 -6.125,7.35719 -6.125,12.28125 0,1.95233 0.51026,3.83339 1.40625,5.5625 -0.56259,0.34524 -1.05686,0.7576 -1.5625,1.15625 l -1.5,-0.96875 a 4.0410144,4.0410144 0 0 0 -2.84375,-0.5625 c 1.63604,-4.38749 2.375,-7.40183 2.375,-10.34375 0,-6.42324 -5.63705,-11.46875 -12.15625,-11.46875 -3.04652,0 -6.03904,0.88907 -8.78125,2.5 A 4.0410144,4.0410144 0 0 0 735.65625,522.5 l -18,1 a 4.0410144,4.0410144 0 0 0 -1.8125,0.53125 4.0410144,4.0410144 0 0 0 -2.15625,-1.40625 c 3.05477,-1.75827 5.25,-4.89161 5.25,-8.625 0,-5.5659 -4.59035,-10.15625 -10.15625,-10.15625 z m -254.125,12.96875 c -0.23551,0.20204 -0.37104,0.0625 0.90625,0.0625 l 1.59375,0 c 2.68525,0 4.0232,0.65799 4.96875,1.71875 0.94555,1.06076 1.71875,2.99821 1.71875,6.28125 0,7.18121 -2.90955,17.31573 -6.15625,22.15625 C 454.90368,551.14897 451.32561,553 446.28125,553 l -1.375,0 c 0.0201,-0.0897 0.01,-0.091 0.0312,-0.1875 0.0181,-0.081 0.0122,-0.0704 0.0312,-0.15625 l 9.15625,-34.1875 0,-0.0625 c 0.41184,-1.41048 0.7587,-1.78888 0.53125,-1.59375 z M 570.5,533.875 c 0.34408,0 0.20224,-0.001 0.28125,0.0937 0.079,0.0948 0.34375,0.51237 0.34375,1.46875 0,2.60884 -1.50974,9.83686 -3.3125,14.34375 a 4.0410144,4.0410144 0 0 0 -0.0312,0.0312 c -0.83705,2.17012 -1.7482,3.56914 -2.4375,4.25 -0.6893,0.68086 -0.95563,0.75 -1.40625,0.75 -0.46375,0 -0.22513,0.0307 -0.25,0 -0.0249,-0.0307 -0.3125,-0.49742 -0.3125,-1.65625 0,-3.48023 1.3281,-9.97529 2.9375,-13.875 0.94298,-2.25144 1.94468,-3.78773 2.71875,-4.5625 0.77916,-0.77985 1.10503,-0.84375 1.46875,-0.84375 z m 214.03125,0 c 0.36618,0 0.40625,-0.20546 0.40625,1.0625 0,1.59174 -0.64476,4.38327 -1.4375,5.96875 A 4.0410144,4.0410144 0 0 0 783.46875,541 c -0.62921,1.34232 -0.63407,1.15625 -1.09375,1.15625 -0.52923,0 -0.43579,-0.0606 -0.4375,-0.0625 -0.002,-0.002 -0.21875,-0.22513 -0.21875,-1.09375 0,-1.93806 0.66819,-4.45567 1.5625,-6.0625 0.0124,-0.0217 0.0193,-0.0104 0.0312,-0.0312 0.6327,-1.10306 0.6535,-1.03125 1.21875,-1.03125 z m -69.84375,0.0312 a 4.0410144,4.0410144 0 0 0 2.6875,1.03125 l 1.65625,0 c -0.12578,0.59426 -0.0838,0.53947 -0.46875,1.875 -0.006,0.021 0.006,0.0101 0,0.0312 l -2.59375,8.625 -0.78125,-0.5625 a 4.0410144,4.0410144 0 0 0 -3.5625,-0.5625 l 3.0625,-10.4375 z m -72.09375,0.53125 c 0.59032,0.61617 0.39566,0.67856 0.4375,1.21875 0,2.41026 -1.46768,8.46231 -3.375,12.53125 a 4.0410144,4.0410144 0 0 0 -0.0312,0.0625 c -0.89498,1.97514 -1.82797,3.27971 -2.53125,3.9375 -0.70328,0.65779 -0.99333,0.6875 -1.25,0.6875 -0.0726,-0.0935 -0.375,-0.60724 -0.375,-1.65625 0,-2.7972 1.33301,-8.44868 3.125,-12.15625 a 4.0410144,4.0410144 0 0 0 0.0312,0 c 0.97679,-2.04811 1.91528,-3.3532 2.59375,-3.96875 0.67847,-0.61555 0.91474,-0.65625 1.375,-0.65625 z m -141.40625,0.0312 c -0.42046,0.95549 -1.27326,2.06403 -2.40625,3.09375 0.24021,-0.4222 0.47335,-0.99836 0.71875,-1.34375 0.64002,-0.9008 1.19896,-1.39653 1.6875,-1.75 z m 192.4375,0.46875 0.9375,0 c -0.1345,0.62052 -0.077,0.55725 -0.46875,1.875 l -3.21875,10.78125 a 4.0410144,4.0410144 0 0 0 -1.0625,-1.15625 L 687.15625,544.5 a 4.0410144,4.0410144 0 0 0 -3.75,-0.5625 l 2.40625,-8 5.15625,0 a 4.0410144,4.0410144 0 0 0 2.65625,-1 z m -30.1875,0.65625 a 4.0410144,4.0410144 0 0 0 1.6875,0.34375 l 0.875,0 -2.375,8.0625 a 4.0410144,4.0410144 0 0 0 -2.6875,0.0625 l 2.5,-8.46875 z M 532.75,538.0625 c 0.46505,4.52381 4.42021,8.10145 9.03125,8.3125 A 4.0410144,4.0410144 0 0 0 539.5,547.71875 c -3.91795,4.58201 -6.48582,5.8125 -8.1875,5.8125 -0.6285,0 -0.86624,-0.16209 -1.1875,-0.53125 -0.32126,-0.36916 -0.6875,-1.07213 -0.6875,-2.21875 0,-3.50454 1.57121,-9.55243 3.28125,-12.6875 0.01,-0.0178 0.0216,-0.0136 0.0312,-0.0312 z m 11.53125,8 c -0.0123,0.1999 -0.0553,0.39263 -0.0625,0.59375 a 4.0410144,4.0410144 0 0 0 -1.34375,-0.3125 c 0.48482,-0.0322 0.93369,-0.18479 1.40625,-0.28125 z m -34.6875,1.53125 c -0.006,0.13702 -0.0278,0.26873 -0.0312,0.40625 a 4.0410144,4.0410144 0 0 0 -0.5,-0.0937 c 0.18863,-0.0906 0.34733,-0.21882 0.53125,-0.3125 z m -4.40625,1.75 c -3.65066,3.58737 -5.15819,4.3125 -7.71875,4.3125 -1.0182,0 -1.3381,-0.2288 -1.59375,-0.5 -0.21025,-0.22304 -0.44719,-0.75293 -0.53125,-1.59375 2.77042,-0.31017 5.35262,-0.74118 7.90625,-1.5 0.0101,-0.003 0.0211,0.003 0.0312,0 0.70506,-0.20454 1.24425,-0.49415 1.90625,-0.71875 z m 266.65625,17.5625 c 2.10933,0 5.51563,0.41567 7.46875,0.65625 -1.19379,0.26726 -2.72393,0.5 -4.875,0.5 -2.43689,0 -3.95627,-0.45603 -4.40625,-0.71875 -0.2423,-0.14146 -0.11541,-0.17612 -0.0937,-0.15625 0.15017,-0.0554 0.5716,-0.28125 1.90625,-0.28125 z" />
    <text
       xml:space="preserve"
       style="font-size:72px;font-style:italic;font-variant:normal;font-weight:bold;font-stretch:normal;fill:#ffffff;fill-opacity:1;stroke:none;font-family:Century Schoolbook L;-inkscape-font-specification:Bitstream Charter Italic"
       x="403.28131"
       y="484.67145"
       id="text2816"><tspan
         sodipodi:role="line"
         id="tspan2818"
         x="403.28131"
         y="484.67145"
         dx="0 -10.606602 -3.5355337 -3.5355337 -3.0304575 -0.50507629 -3.0304575 -2.0203052"
         dy="-4.0406122"
         rotate="3.8308003e-06 0">Painting</tspan><tspan
         sodipodi:role="line"
         x="403.28131"
         y="574.67145"
         id="tspan2820"
         dx="0 0 -4.0406098 -4.0406098 -4.5456862 -3.5355337 -4.0406098 -3.5355337 -1.5152289 -3.5355337 -3.0304575"
         dy="0 -19.697969"> Decorating</tspan><tspan
         sodipodi:role="line"
         x="403.28131"
         y="664.67145"
         id="tspan2822" /></text>
    <path
       sodipodi:type="inkscape:offset"
       inkscape:radius="3.5355339"
       inkscape:original="M 580.15625 562.71875 C 576.10625 562.71875 572.3625 564.11875 567.9375 567.34375 C 563.2875 570.86875 561.09375 574.1875 561.09375 577.9375 C 561.09375 582.2875 563.7375 585.125 568.3125 585.875 C 562.23751 587.9 559.75625 589.25625 556.90625 592.03125 C 554.20625 594.65625 552.84375 597.95625 552.84375 601.78125 C 552.84375 610.55624 559.74376 616.09375 570.84375 616.09375 C 577.96874 616.09375 585.91876 613.76875 591.09375 610.09375 C 595.66875 606.94375 598.15625 602.84375 598.15625 598.34375 C 598.15625 595.26875 596.5125 593.3125 593.4375 592.5625 L 599.4375 591.4375 C 604.91249 590.4625 608.125 586.85625 608.125 581.90625 C 608.125 578.83125 606.85 576.95 603.625 575.375 L 602.5625 577.25 C 604.4375 578 605.28125 579.13125 605.28125 580.78125 C 605.28125 583.93125 602.78749 585.49375 596.5625 586.46875 L 587.5625 587.84375 C 583.8875 588.36875 579.85625 590.23125 578.28125 592.03125 L 577.53125 599.90625 L 579.3125 599.90625 L 579.625 598.78125 C 580.525 595.40625 582.1625 593.96875 584.9375 593.96875 C 588.7625 593.96875 591.3125 596.46875 591.3125 600.21875 C 591.3125 607.04374 584.88749 612.125 576.1875 612.125 C 567.41251 612.125 561.625 607.09374 561.625 599.59375 C 561.625 592.09376 567.39376 587 575.71875 587 C 576.61875 587 577.075 587.06875 577.75 587.21875 L 578.8125 582.96875 L 577.75 582.96875 C 577.225 583.04375 576.85625 583.03125 576.78125 583.03125 C 571.98125 583.03125 568.4375 579.725 568.4375 575.375 C 568.4375 570.425 572.1125 566.84375 577.0625 566.84375 C 579.9125 566.84375 582.025 567.65625 584.875 569.90625 L 584.875 574.40625 L 587.125 574.40625 C 587.2 571.25625 587.5625 569.0875 588.6875 564.8125 C 585.9875 563.3125 583.45625 562.71875 580.15625 562.71875 z "
       xlink:href="#text2834"
       style="font-size:64px;font-style:italic;font-variant:normal;font-weight:bold;font-stretch:normal;fill:#000000;fill-opacity:1;stroke:none;font-family:URW Palladio L;-inkscape-font-specification:URW Palladio L Bold Italic"
       id="path2838"
       inkscape:href="#text2834"
       d="m 580.15625,557.1875 c -4.86477,0 -9.51401,1.8153 -14.3125,5.3125 a 3.5358875,3.5358875 0 0 0 -0.0312,0.0312 c -5.07474,3.84698 -8.25,8.27739 -8.25,13.40625 0,2.78746 0.9209,5.45366 2.65625,7.46875 -2.22316,1.16028 -4.07753,2.43486 -5.78125,4.09375 -3.33561,3.24296 -5.125,7.61666 -5.125,12.28125 0,5.31419 2.24615,10.10166 6.15625,13.21875 3.9101,3.11709 9.23707,4.625 15.375,4.625 7.86985,0 16.25893,-2.39237 22.25,-6.625 0.0192,-0.0132 0.0434,-0.018 0.0625,-0.0312 5.22899,-3.62167 8.53125,-8.84325 8.53125,-14.625 0,-1.28811 -0.31009,-2.53395 -0.78125,-3.71875 6.25414,-1.49351 10.75,-6.53117 10.75,-12.71875 0,-2.02615 -0.47581,-4.12418 -1.65625,-5.84375 -1.18044,-1.71957 -2.86632,-2.92454 -4.8125,-3.875 a 3.5358875,3.5358875 0 0 0 -4.625,1.4375 L 599.5,573.5 a 3.5358875,3.5358875 0 0 0 1.75,5.03125 c 0.47838,0.19135 0.51619,0.26953 0.5,0.25 0,0.64201 0.22352,0.28029 -0.40625,0.6875 -0.6271,0.40548 -2.43555,1.04635 -5.3125,1.5 -0.0122,0.002 -0.019,-0.002 -0.0312,0 l -8.9375,1.375 -0.0312,0 c -1.85506,0.26686 -3.60198,0.83396 -5.28125,1.46875 l 0.5,-2 a 3.5358875,3.5358875 0 0 0 -3.4375,-4.375 l -1.0625,0 a 3.5358875,3.5358875 0 0 0 -0.5,0.0312 c -0.24111,0.0344 -9.1e-4,0.0312 -0.46875,0.0312 -3.17648,0 -4.8125,-1.69516 -4.8125,-4.125 0,-3.20009 1.84902,-5 5.09375,-5 1.67937,0 2.78884,0.44224 4.28125,1.4375 l 0,2.59375 a 3.5358875,3.5358875 0 0 0 3.53125,3.53125 l 2.25,0 a 3.5358875,3.5358875 0 0 0 3.53125,-3.4375 c 0.0695,-2.91759 0.33982,-4.61008 1.4375,-8.78125 a 3.5358875,3.5358875 0 0 0 -1.6875,-4 c -3.1738,-1.76322 -6.52591,-2.53125 -10.25,-2.53125 z m -5.125,31.4375 a 3.5358875,3.5358875 0 0 0 -0.28125,1.0625 l -0.75,7.875 a 3.5358875,3.5358875 0 0 0 3.53125,3.875 l 1.78125,0 a 3.5358875,3.5358875 0 0 0 3.40625,-2.59375 l 0.3125,-1.125 a 3.5358875,3.5358875 0 0 0 0,-0.0312 c 0.34465,-1.29244 0.74313,-1.79081 0.90625,-1.9375 0.16312,-0.14669 0.22299,-0.25 1,-0.25 1.14223,0 1.76181,0.33204 2.15625,0.71875 0.39444,0.38671 0.6875,0.92639 0.6875,2 0,2.30305 -0.99988,4.19797 -2.96875,5.75 -1.96887,1.55203 -4.96332,2.625 -8.625,2.625 -3.71178,0 -6.46374,-1.05217 -8.25,-2.59375 -1.78626,-1.54158 -2.78125,-3.56568 -2.78125,-6.40625 0,-2.84352 1.00431,-4.91422 2.75,-6.46875 1.61371,-1.43701 4.05751,-2.3581 7.125,-2.5 z" />
    <text
       xml:space="preserve"
       style="font-size:75px;font-style:italic;font-variant:normal;font-weight:bold;font-stretch:normal;fill:#d40000;fill-opacity:1;stroke:none;font-family:URW Palladio L;-inkscape-font-specification:URW Palladio L Bold Italic"
       x="547.3017"
       y="614.83136"
       id="text2834"><tspan
         sodipodi:role="line"
         id="tspan2836"
         x="547.3017"
         y="614.83136"
         style="font-size:75px;font-style:italic;font-variant:normal;font-weight:bold;font-stretch:normal;fill:#d40000;font-family:URW Palladio L;-inkscape-font-specification:URW Palladio L Bold Italic">&amp;</tspan></text>
    <path
       sodipodi:type="inkscape:offset"
       inkscape:radius="0"
       inkscape:original="M 630.78125 576.125 C 626.22395 576.12503 622.64062 577.45576 620.0625 580.125 C 617.49739 582.78127 616.21875 586.51564 616.21875 591.28125 C 616.21875 596.03386 617.49739 599.73699 620.0625 602.40625 C 622.64062 605.0625 626.22395 606.375 630.78125 606.375 C 632.86456 606.375 634.82029 606.10937 636.65625 605.5625 C 638.49216 605.0026 640.16404 604.17448 641.6875 603.09375 L 641.6875 590.59375 L 631.34375 590.59375 L 631.34375 593.84375 L 637.78125 593.84375 L 637.78125 601.65625 C 636.90883 602.16407 635.93748 602.53386 634.84375 602.78125 C 633.74998 603.01563 632.48696 603.15625 631.09375 603.15625 C 627.52603 603.15625 624.85936 602.14844 623.0625 600.15625 C 621.27864 598.16407 620.37499 595.21355 620.375 591.28125 C 620.37499 587.33596 621.27864 584.36721 623.0625 582.375 C 624.85936 580.38284 627.52603 579.37503 631.09375 579.375 C 632.90363 579.37503 634.6406 579.68753 636.28125 580.3125 C 637.92185 580.93752 639.47914 581.85679 640.9375 583.09375 L 640.9375 578.90625 C 639.49216 577.99482 637.90623 577.31253 636.1875 576.84375 C 634.48175 576.37503 632.68227 576.12503 630.78125 576.125 z M 775.0625 576.125 C 770.64843 576.12503 767.16405 577.4792 764.625 580.1875 C 762.08593 582.88284 760.84375 586.59377 760.84375 591.28125 C 760.84375 595.95574 762.08593 599.63542 764.625 602.34375 C 767.16405 605.03906 770.64843 606.375 775.0625 606.375 C 776.78123 606.375 778.40102 606.15625 779.9375 605.6875 C 781.48696 605.21875 782.96352 604.5 784.34375 603.5625 L 784.34375 599.46875 C 783.0156 600.70573 781.60414 601.60678 780.09375 602.21875 C 778.59633 602.83073 777.00519 603.15625 775.3125 603.15625 C 771.97915 603.15625 769.42707 602.125 767.65625 600.09375 C 765.88541 598.04949 764.99999 595.12241 765 591.28125 C 764.99999 587.4271 765.88541 584.46877 767.65625 582.4375 C 769.42707 580.39325 771.97915 579.37503 775.3125 579.375 C 777.00519 579.37503 778.59633 579.6693 780.09375 580.28125 C 781.60414 580.89325 783.0156 581.82554 784.34375 583.0625 L 784.34375 578.90625 C 782.98956 577.9818 781.54946 577.29951 780 576.84375 C 778.46352 576.37503 776.80727 576.12503 775.0625 576.125 z M 798.40625 576.125 C 795.21614 576.12503 792.72916 576.89065 790.90625 578.375 C 789.09635 579.8594 788.1875 581.89065 788.1875 584.46875 C 788.1875 586.69533 788.84114 588.40627 790.15625 589.65625 C 791.47135 590.90626 793.58853 591.85158 796.53125 592.4375 L 798.9375 592.90625 C 800.94269 593.30991 802.37759 593.91147 803.25 594.71875 C 804.1354 595.52605 804.59373 596.63022 804.59375 598.0625 C 804.59373 599.70313 803.97394 600.95834 802.75 601.84375 C 801.52603 602.72917 799.78384 603.1875 797.53125 603.1875 C 796.04686 603.1875 794.53645 602.95573 793 602.5 C 791.46354 602.04427 789.88281 601.36719 788.28125 600.46875 L 788.28125 604.53125 C 789.94791 605.14323 791.57551 605.59375 793.125 605.90625 C 794.68749 606.21875 796.15103 606.375 797.53125 606.375 C 801.19009 606.375 803.95571 605.64583 805.84375 604.1875 C 807.74477 602.72917 808.71873 600.60678 808.71875 597.78125 C 808.71873 595.41147 807.99998 593.53126 806.59375 592.125 C 805.2005 590.70574 803.03644 589.71616 800.09375 589.15625 L 797.71875 588.65625 C 795.55728 588.25262 794.06249 587.71356 793.28125 587.0625 C 792.51301 586.39846 792.15624 585.44533 792.15625 584.15625 C 792.15624 582.61981 792.71614 581.42711 793.875 580.59375 C 795.04687 579.76044 796.72655 579.34378 798.875 579.34375 C 800.11196 579.34378 801.39061 579.52346 802.71875 579.875 C 804.04686 580.22659 805.44008 580.75263 806.9375 581.46875 L 806.9375 577.625 C 805.45311 577.13024 804.013 576.74742 802.59375 576.5 C 801.17446 576.25263 799.77342 576.12503 798.40625 576.125 z M 646.375 576.65625 L 646.375 605.8125 L 650.34375 605.8125 L 650.34375 593.5 L 654.625 593.5 C 656.18749 593.50001 657.41405 593.83074 658.3125 594.46875 C 659.22394 595.10678 660.16144 596.39063 661.125 598.34375 L 664.875 605.8125 L 669.09375 605.8125 L 665.09375 597.84375 C 664.28644 596.20313 663.49477 594.93751 662.6875 594 C 661.89321 593.06251 661.06509 592.44272 660.21875 592.15625 C 661.84633 591.68751 663.09113 590.83595 663.9375 589.625 C 664.79685 588.41408 665.21873 586.89846 665.21875 585.0625 C 665.21873 582.25002 664.3906 580.14325 662.75 578.75 C 661.10936 577.3568 658.61457 576.65628 655.28125 576.65625 L 646.375 576.65625 z M 683.75 576.65625 L 672.59375 605.8125 L 676.78125 605.8125 L 679.4375 598.34375 L 692.5625 598.34375 L 695.21875 605.8125 L 699.3125 605.8125 L 688.21875 576.65625 L 683.75 576.65625 z M 702.5625 576.65625 L 702.5625 605.8125 L 706.5 605.8125 L 706.5 594.09375 L 711.46875 594.09375 C 714.73696 594.09376 717.20831 593.37762 718.875 591.90625 C 720.55467 590.43491 721.37498 588.25262 721.375 585.375 C 721.37498 582.52346 720.55467 580.34638 718.875 578.875 C 717.20831 577.39065 714.73696 576.65628 711.46875 576.65625 L 702.5625 576.65625 z M 725.6875 576.65625 L 725.6875 605.8125 L 729.625 605.8125 L 729.625 591.9375 L 743.96875 591.9375 L 743.96875 605.8125 L 747.90625 605.8125 L 747.90625 576.65625 L 743.96875 576.65625 L 743.96875 588.625 L 729.625 588.625 L 729.625 576.65625 L 725.6875 576.65625 z M 752.71875 576.65625 L 752.71875 605.8125 L 756.6875 605.8125 L 756.6875 576.65625 L 752.71875 576.65625 z M 650.34375 579.90625 L 655.28125 579.90625 C 657.18228 579.90628 658.63019 580.34638 659.59375 581.21875 C 660.57029 582.07815 661.06248 583.35679 661.0625 585.0625 C 661.06248 586.76825 660.57029 588.0521 659.59375 588.9375 C 658.63019 589.80991 657.18228 590.25002 655.28125 590.25 L 650.34375 590.25 L 650.34375 579.90625 z M 706.5 579.90625 L 711.46875 579.90625 C 713.30467 579.90628 714.71613 580.39325 715.71875 581.34375 C 716.72134 582.29429 717.21873 583.63023 717.21875 585.375 C 717.21873 587.13283 716.72134 588.487 715.71875 589.4375 C 714.71613 590.38804 713.30467 590.87501 711.46875 590.875 L 706.5 590.875 L 706.5 579.90625 z M 685.96875 580.5625 L 691.34375 595.0625 L 680.625 595.0625 L 685.96875 580.5625 z "
       xlink:href="#text2840"
       style="font-size:40px;font-style:normal;font-weight:normal;fill:#000000;fill-opacity:1;stroke:none;font-family:Bitstream Vera Sans"
       id="path2844"
       inkscape:href="#text2840"
       d="m 630.78125,576.125 c -4.5573,3e-5 -8.14063,1.33076 -10.71875,4 -2.56511,2.65627 -3.84375,6.39064 -3.84375,11.15625 0,4.75261 1.27864,8.45574 3.84375,11.125 2.57812,2.65625 6.16145,3.96875 10.71875,3.96875 2.08331,0 4.03904,-0.26563 5.875,-0.8125 1.83591,-0.5599 3.50779,-1.38802 5.03125,-2.46875 l 0,-12.5 -10.34375,0 0,3.25 6.4375,0 0,7.8125 c -0.87242,0.50782 -1.84377,0.87761 -2.9375,1.125 -1.09377,0.23438 -2.35679,0.375 -3.75,0.375 -3.56772,0 -6.23439,-1.00781 -8.03125,-3 -1.78386,-1.99218 -2.68751,-4.9427 -2.6875,-8.875 -10e-6,-3.94529 0.90364,-6.91404 2.6875,-8.90625 1.79686,-1.99216 4.46353,-2.99997 8.03125,-3 1.80988,3e-5 3.54685,0.31253 5.1875,0.9375 1.6406,0.62502 3.19789,1.54429 4.65625,2.78125 l 0,-4.1875 c -1.44534,-0.91143 -3.03127,-1.59372 -4.75,-2.0625 -1.70575,-0.46872 -3.50523,-0.71872 -5.40625,-0.71875 z m 129.625,0 c -4.41407,3e-5 -7.8672,1.3542 -10.40625,4.0625 -2.53907,2.69534 -3.8125,6.40627 -3.8125,11.09375 0,4.67449 1.27343,8.35417 3.8125,11.0625 2.53905,2.69531 5.99218,4.03125 10.40625,4.03125 1.71873,0 3.36977,-0.21875 4.90625,-0.6875 1.54946,-0.46875 2.99477,-1.1875 4.375,-2.125 l 0,-4.09375 c -1.32815,1.23698 -2.73961,2.13803 -4.25,2.75 -1.49742,0.61198 -3.08856,0.9375 -4.78125,0.9375 -3.33335,0 -5.88543,-1.03125 -7.65625,-3.0625 -1.77084,-2.04426 -2.65626,-4.97134 -2.65625,-8.8125 -10e-6,-3.85415 0.88541,-6.81248 2.65625,-8.84375 1.77082,-2.04425 4.3229,-3.06247 7.65625,-3.0625 1.69269,3e-5 3.28383,0.2943 4.78125,0.90625 1.51039,0.612 2.92185,1.54429 4.25,2.78125 l 0,-4.15625 c -1.35419,-0.92445 -2.79429,-1.60674 -4.34375,-2.0625 -1.53648,-0.46872 -3.19273,-0.71872 -4.9375,-0.71875 z m 22.34375,0 c -3.19011,3e-5 -5.67709,0.76565 -7.5,2.25 -1.8099,1.4844 -2.71875,3.51565 -2.71875,6.09375 0,2.22658 0.65364,3.93752 1.96875,5.1875 1.3151,1.25001 3.43228,2.19533 6.375,2.78125 l 2.40625,0.46875 c 2.00519,0.40366 3.44009,1.00522 4.3125,1.8125 0.8854,0.8073 1.34373,1.91147 1.34375,3.34375 -2e-5,1.64063 -0.61981,2.89584 -1.84375,3.78125 -1.22397,0.88542 -2.96616,1.34375 -5.21875,1.34375 -1.48439,0 -2.9948,-0.23177 -4.53125,-0.6875 -1.53646,-0.45573 -3.11719,-1.13281 -4.71875,-2.03125 l 0,4.0625 c 1.66666,0.61198 3.29426,1.0625 4.84375,1.375 1.56249,0.3125 3.02603,0.46875 4.40625,0.46875 3.65884,0 6.42446,-0.72917 8.3125,-2.1875 1.90102,-1.45833 2.87498,-3.58072 2.875,-6.40625 -2e-5,-2.36978 -0.71877,-4.24999 -2.125,-5.65625 -1.39325,-1.41926 -3.55731,-2.40884 -6.5,-2.96875 l -2.375,-0.5 c -2.16147,-0.40363 -3.65626,-0.94269 -4.4375,-1.59375 -0.76824,-0.66404 -1.12501,-1.61717 -1.125,-2.90625 -10e-6,-1.53644 0.55989,-2.72914 1.71875,-3.5625 1.17187,-0.83331 2.85155,-1.24997 5,-1.25 1.23696,3e-5 2.51561,0.17971 3.84375,0.53125 1.32811,0.35159 2.72133,0.87763 4.21875,1.59375 l 0,-3.84375 c -1.48439,-0.49476 -2.9245,-0.87758 -4.34375,-1.125 -1.41929,-0.24737 -2.82033,-0.37497 -4.1875,-0.375 z m -138.875,0.53125 0,29.15625 3.9375,0 0,-12.3125 4.28125,0 c 1.56249,10e-6 2.78905,0.33074 3.6875,0.96875 0.91144,0.63803 1.84894,1.92188 2.8125,3.875 l 3.75,7.46875 4.21875,0 -4,-7.96875 c -0.80731,-1.64062 -1.59898,-2.90624 -2.40625,-3.84375 -0.79429,-0.93749 -1.62241,-1.55728 -2.46875,-1.84375 1.62758,-0.46874 2.87238,-1.3203 3.71875,-2.53125 0.85935,-1.21092 1.28123,-2.72654 1.28125,-4.5625 -2e-5,-2.81248 -0.82815,-4.91925 -2.46875,-6.3125 -1.64064,-1.3932 -4.10418,-2.09372 -7.4375,-2.09375 l -8.90625,0 z m 34.3125,0 -11.125,29.15625 4.15625,0 2.65625,-7.46875 13.125,0 2.65625,7.46875 4.125,0 -11.125,-29.15625 -4.46875,0 z m 16.28125,0 0,29.15625 3.9375,0 0,-11.71875 4.96875,0 c 3.26821,10e-6 5.73956,-0.71613 7.40625,-2.1875 1.67967,-1.47134 2.53123,-3.65363 2.53125,-6.53125 -2e-5,-2.85154 -0.85158,-5.02862 -2.53125,-6.5 -1.66669,-1.48435 -4.13804,-2.21872 -7.40625,-2.21875 l -8.90625,0 z m 20.09375,0 0,29.15625 3.96875,0 0,-13.875 14.3125,0 0,13.875 3.96875,0 0,-29.15625 -3.96875,0 0,11.96875 -14.3125,0 0,-11.96875 -3.96875,0 z m 25.03125,0 0,29.15625 3.9375,0 0,-29.15625 -3.9375,0 z m -91.78125,3.25 4.96875,0 c 1.90103,3e-5 3.31769,0.44013 4.28125,1.3125 0.97654,0.8594 1.46873,2.13804 1.46875,3.84375 -2e-5,1.70575 -0.49221,2.9896 -1.46875,3.875 -0.96356,0.87241 -2.38022,1.31252 -4.28125,1.3125 l -4.96875,0 0,-10.34375 z m 50.59375,0 4.96875,0 c 1.83592,3e-5 3.24738,0.487 4.25,1.4375 1.00259,0.95054 1.53123,2.28648 1.53125,4.03125 -2e-5,1.75783 -0.52866,3.112 -1.53125,4.0625 -1.00262,0.95054 -2.41408,1.43751 -4.25,1.4375 l -4.96875,0 0,-10.96875 z m -18,0.65625 5.375,14.5 -10.71875,0 5.34375,-14.5 z" />
    <path
       sodipodi:type="inkscape:offset"
       inkscape:radius="1.0459146"
       inkscape:original="M 630.78125 576.125 C 626.22395 576.12503 622.64062 577.45576 620.0625 580.125 C 617.49739 582.78127 616.21875 586.51564 616.21875 591.28125 C 616.21875 596.03386 617.49739 599.73699 620.0625 602.40625 C 622.64062 605.0625 626.22395 606.375 630.78125 606.375 C 632.86456 606.375 634.82029 606.10937 636.65625 605.5625 C 638.49216 605.0026 640.16404 604.17448 641.6875 603.09375 L 641.6875 590.59375 L 631.34375 590.59375 L 631.34375 593.84375 L 637.78125 593.84375 L 637.78125 601.65625 C 636.90883 602.16407 635.93748 602.53386 634.84375 602.78125 C 633.74998 603.01563 632.48696 603.15625 631.09375 603.15625 C 627.52603 603.15625 624.85936 602.14844 623.0625 600.15625 C 621.27864 598.16407 620.37499 595.21355 620.375 591.28125 C 620.37499 587.33596 621.27864 584.36721 623.0625 582.375 C 624.85936 580.38284 627.52603 579.37503 631.09375 579.375 C 632.90363 579.37503 634.6406 579.68753 636.28125 580.3125 C 637.92185 580.93752 639.47914 581.85679 640.9375 583.09375 L 640.9375 578.90625 C 639.49216 577.99482 637.90623 577.31253 636.1875 576.84375 C 634.48175 576.37503 632.68227 576.12503 630.78125 576.125 z M 775.0625 576.125 C 770.64843 576.12503 767.16405 577.4792 764.625 580.1875 C 762.08593 582.88284 760.84375 586.59377 760.84375 591.28125 C 760.84375 595.95574 762.08593 599.63542 764.625 602.34375 C 767.16405 605.03906 770.64843 606.375 775.0625 606.375 C 776.78123 606.375 778.40102 606.15625 779.9375 605.6875 C 781.48696 605.21875 782.96352 604.5 784.34375 603.5625 L 784.34375 599.46875 C 783.0156 600.70573 781.60414 601.60678 780.09375 602.21875 C 778.59633 602.83073 777.00519 603.15625 775.3125 603.15625 C 771.97915 603.15625 769.42707 602.125 767.65625 600.09375 C 765.88541 598.04949 764.99999 595.12241 765 591.28125 C 764.99999 587.4271 765.88541 584.46877 767.65625 582.4375 C 769.42707 580.39325 771.97915 579.37503 775.3125 579.375 C 777.00519 579.37503 778.59633 579.6693 780.09375 580.28125 C 781.60414 580.89325 783.0156 581.82554 784.34375 583.0625 L 784.34375 578.90625 C 782.98956 577.9818 781.54946 577.29951 780 576.84375 C 778.46352 576.37503 776.80727 576.12503 775.0625 576.125 z M 798.40625 576.125 C 795.21614 576.12503 792.72916 576.89065 790.90625 578.375 C 789.09635 579.8594 788.1875 581.89065 788.1875 584.46875 C 788.1875 586.69533 788.84114 588.40627 790.15625 589.65625 C 791.47135 590.90626 793.58853 591.85158 796.53125 592.4375 L 798.9375 592.90625 C 800.94269 593.30991 802.37759 593.91147 803.25 594.71875 C 804.1354 595.52605 804.59373 596.63022 804.59375 598.0625 C 804.59373 599.70313 803.97394 600.95834 802.75 601.84375 C 801.52603 602.72917 799.78384 603.1875 797.53125 603.1875 C 796.04686 603.1875 794.53645 602.95573 793 602.5 C 791.46354 602.04427 789.88281 601.36719 788.28125 600.46875 L 788.28125 604.53125 C 789.94791 605.14323 791.57551 605.59375 793.125 605.90625 C 794.68749 606.21875 796.15103 606.375 797.53125 606.375 C 801.19009 606.375 803.95571 605.64583 805.84375 604.1875 C 807.74477 602.72917 808.71873 600.60678 808.71875 597.78125 C 808.71873 595.41147 807.99998 593.53126 806.59375 592.125 C 805.2005 590.70574 803.03644 589.71616 800.09375 589.15625 L 797.71875 588.65625 C 795.55728 588.25262 794.06249 587.71356 793.28125 587.0625 C 792.51301 586.39846 792.15624 585.44533 792.15625 584.15625 C 792.15624 582.61981 792.71614 581.42711 793.875 580.59375 C 795.04687 579.76044 796.72655 579.34378 798.875 579.34375 C 800.11196 579.34378 801.39061 579.52346 802.71875 579.875 C 804.04686 580.22659 805.44008 580.75263 806.9375 581.46875 L 806.9375 577.625 C 805.45311 577.13024 804.013 576.74742 802.59375 576.5 C 801.17446 576.25263 799.77342 576.12503 798.40625 576.125 z M 646.375 576.65625 L 646.375 605.8125 L 650.34375 605.8125 L 650.34375 593.5 L 654.625 593.5 C 656.18749 593.50001 657.41405 593.83074 658.3125 594.46875 C 659.22394 595.10678 660.16144 596.39063 661.125 598.34375 L 664.875 605.8125 L 669.09375 605.8125 L 665.09375 597.84375 C 664.28644 596.20313 663.49477 594.93751 662.6875 594 C 661.89321 593.06251 661.06509 592.44272 660.21875 592.15625 C 661.84633 591.68751 663.09113 590.83595 663.9375 589.625 C 664.79685 588.41408 665.21873 586.89846 665.21875 585.0625 C 665.21873 582.25002 664.3906 580.14325 662.75 578.75 C 661.10936 577.3568 658.61457 576.65628 655.28125 576.65625 L 646.375 576.65625 z M 683.75 576.65625 L 672.59375 605.8125 L 676.78125 605.8125 L 679.4375 598.34375 L 692.5625 598.34375 L 695.21875 605.8125 L 699.3125 605.8125 L 688.21875 576.65625 L 683.75 576.65625 z M 702.5625 576.65625 L 702.5625 605.8125 L 706.5 605.8125 L 706.5 594.09375 L 711.46875 594.09375 C 714.73696 594.09376 717.20831 593.37762 718.875 591.90625 C 720.55467 590.43491 721.37498 588.25262 721.375 585.375 C 721.37498 582.52346 720.55467 580.34638 718.875 578.875 C 717.20831 577.39065 714.73696 576.65628 711.46875 576.65625 L 702.5625 576.65625 z M 725.6875 576.65625 L 725.6875 605.8125 L 729.625 605.8125 L 729.625 591.9375 L 743.96875 591.9375 L 743.96875 605.8125 L 747.90625 605.8125 L 747.90625 576.65625 L 743.96875 576.65625 L 743.96875 588.625 L 729.625 588.625 L 729.625 576.65625 L 725.6875 576.65625 z M 752.71875 576.65625 L 752.71875 605.8125 L 756.6875 605.8125 L 756.6875 576.65625 L 752.71875 576.65625 z M 650.34375 579.90625 L 655.28125 579.90625 C 657.18228 579.90628 658.63019 580.34638 659.59375 581.21875 C 660.57029 582.07815 661.06248 583.35679 661.0625 585.0625 C 661.06248 586.76825 660.57029 588.0521 659.59375 588.9375 C 658.63019 589.80991 657.18228 590.25002 655.28125 590.25 L 650.34375 590.25 L 650.34375 579.90625 z M 706.5 579.90625 L 711.46875 579.90625 C 713.30467 579.90628 714.71613 580.39325 715.71875 581.34375 C 716.72134 582.29429 717.21873 583.63023 717.21875 585.375 C 717.21873 587.13283 716.72134 588.487 715.71875 589.4375 C 714.71613 590.38804 713.30467 590.87501 711.46875 590.875 L 706.5 590.875 L 706.5 579.90625 z M 685.96875 580.5625 L 691.34375 595.0625 L 680.625 595.0625 L 685.96875 580.5625 z "
       xlink:href="#text2840"
       style="font-size:40px;font-style:normal;font-weight:normal;fill:#000000;fill-opacity:1;stroke:none;font-family:Bitstream Vera Sans"
       id="path2848"
       inkscape:href="#text2840"
       d="m 630.78125,575.09375 c -4.7609,3e-5 -8.67487,1.41987 -11.46875,4.3125 -2.78473,2.8837 -4.125,6.92231 -4.125,11.875 0,4.9402 1.34534,8.95123 4.125,11.84375 2.79553,2.88025 6.71063,4.28125 11.46875,4.28125 2.17222,0 4.24559,-0.26532 6.1875,-0.84375 1.94168,-0.59216 3.70016,-1.48122 5.3125,-2.625 a 1.0460192,1.0460192 0 0 0 0.4375,-0.84375 l 0,-12.5 a 1.0460192,1.0460192 0 0 0 -1.03125,-1.03125 l -10.34375,0 a 1.0460192,1.0460192 0 0 0 -1.03125,1.03125 l 0,3.25 a 1.0460192,1.0460192 0 0 0 1.03125,1.03125 l 5.40625,0 0,6.0625 c -0.65515,0.32812 -1.31109,0.6284 -2.125,0.8125 -1.01628,0.21777 -2.20842,0.375 -3.53125,0.375 -3.37075,0 -5.68034,-0.91596 -7.25,-2.65625 -1.5586,-1.74061 -2.43751,-4.41544 -2.4375,-8.1875 -10e-6,-3.78558 0.88101,-6.48046 2.4375,-8.21875 1.56966,-1.74026 3.87924,-2.65622 7.25,-2.65625 1.6895,3e-5 3.29295,0.29616 4.8125,0.875 1.52754,0.58195 2.97056,1.46028 4.34375,2.625 a 1.0460192,1.0460192 0 0 0 1.71875,-0.8125 l 0,-4.1875 a 1.0460192,1.0460192 0 0 0 -0.46875,-0.875 c -1.53813,-0.96994 -3.22154,-1.69391 -5.03125,-2.1875 -1.79535,-0.49334 -3.69479,-0.74997 -5.6875,-0.75 z m 129.625,0 c -4.62798,3e-5 -8.41256,1.44842 -11.15625,4.375 -2.74794,2.91706 -4.09375,6.93559 -4.09375,11.8125 0,4.86444 1.35073,8.85537 4.09375,11.78125 2.74531,2.91427 6.53115,4.34375 11.15625,4.34375 1.80748,0 3.56912,-0.21548 5.21875,-0.71875 1.66055,-0.50236 3.20082,-1.26142 4.65625,-2.25 a 1.0460192,1.0460192 0 0 0 0.4375,-0.875 l 0,-4.09375 a 1.0460192,1.0460192 0 0 0 -1.75,-0.75 c -1.24308,1.15775 -2.54809,1.9683 -3.9375,2.53125 -1.37747,0.56296 -2.8164,0.875 -4.375,0.875 -3.11763,0 -5.31605,-0.93053 -6.875,-2.71875 -1.5603,-1.80121 -2.40626,-4.44457 -2.40625,-8.125 -10e-6,-3.69396 0.85248,-6.37397 2.40625,-8.15625 1.55774,-1.79827 3.75464,-2.71872 6.875,-2.71875 1.57148,3e-5 3.00906,0.28553 4.375,0.84375 1.37794,0.55833 2.68799,1.39878 3.9375,2.5625 a 1.0460192,1.0460192 0 0 0 1.75,-0.75 l 0,-4.15625 a 1.0460192,1.0460192 0 0 0 -0.4375,-0.875 c -1.43352,-0.97861 -2.98301,-1.70149 -4.625,-2.1875 -0.01,-0.003 -0.0217,0.003 -0.0312,0 -1.62971,-0.494 -3.38484,-0.74997 -5.21875,-0.75 z m 22.34375,0 c -3.35745,3e-5 -6.10871,0.80149 -8.15625,2.46875 -2.0389,1.67221 -3.09375,4.08234 -3.09375,6.90625 0,2.43127 0.74613,4.47841 2.28125,5.9375 1.53054,1.45479 3.8152,2.45327 6.875,3.0625 a 1.0460192,1.0460192 0 0 0 0.0312,0 l 2.375,0.46875 0.0312,0 c 1.88347,0.38304 3.14225,0.9712 3.78125,1.5625 0.66733,0.60846 1.03123,1.35334 1.03125,2.5625 -2e-5,1.37722 -0.45804,2.22895 -1.4375,2.9375 -0.98097,0.70963 -2.48303,1.15625 -4.59375,1.15625 -1.37552,0 -2.76877,-0.22617 -4.21875,-0.65625 -1.45319,-0.43103 -2.99025,-1.07303 -4.53125,-1.9375 a 1.0460192,1.0460192 0 0 0 -1.53125,0.90625 l 0,4.0625 A 1.0460192,1.0460192 0 0 0 772.25,605.5 c 1.71757,0.63067 3.39868,1.11455 5,1.4375 1.61991,0.32398 3.16584,0.46875 4.625,0.46875 3.78525,0 6.76205,-0.76044 8.90625,-2.40625 l 0.0312,0 c 2.14004,-1.65185 3.28123,-4.16233 3.28125,-7.21875 -2e-5,-2.57117 -0.80884,-4.76679 -2.40625,-6.375 -0.006,-0.006 -0.0255,0.006 -0.0312,0 -1.59645,-1.61647 -3.95408,-2.69757 -7,-3.28125 l -0.0312,0 -2.34375,-0.5 a 1.0460192,1.0460192 0 0 0 -0.0312,0 c -2.06212,-0.38508 -3.43025,-0.93201 -3.9375,-1.34375 -0.0112,-0.01 -0.0203,-0.0215 -0.0312,-0.0312 -0.49236,-0.441 -0.75001,-1.02144 -0.75,-2.09375 -10e-6,-1.28234 0.40803,-2.06833 1.3125,-2.71875 0.92247,-0.64665 2.37659,-1.06247 4.375,-1.0625 1.13569,3e-5 2.30966,0.16839 3.5625,0.5 1.25354,0.33185 2.61303,0.83806 4.0625,1.53125 a 1.0460192,1.0460192 0 0 0 1.46875,-0.9375 l 0,-3.84375 a 1.0460192,1.0460192 0 0 0 -0.6875,-1 c -1.52337,-0.50775 -3.01886,-0.89804 -4.5,-1.15625 -1.47405,-0.25691 -2.94277,-0.37497 -4.375,-0.375 z M 643.65625,575.625 a 1.0460192,1.0460192 0 0 0 -0.8125,1.03125 l 0,29.15625 a 1.0460192,1.0460192 0 0 0 1.03125,1.03125 l 3.9375,0 a 1.0460192,1.0460192 0 0 0 1.03125,-1.03125 l 0,-11.28125 3.25,0 c 1.4149,10e-6 2.42257,0.30463 3.09375,0.78125 0.64747,0.45325 1.54382,1.62519 2.46875,3.5 l 3.75,7.46875 a 1.0460192,1.0460192 0 0 0 0.9375,0.5625 l 4.21875,0 a 1.0460192,1.0460192 0 0 0 0.21875,0 1.0460192,1.0460192 0 0 0 0.0312,0 1.0460192,1.0460192 0 0 0 0.25,0 l 4.15625,0 a 1.0460192,1.0460192 0 0 0 1,-0.6875 l 2.40625,-6.78125 11.625,0 2.40625,6.78125 a 1.0460192,1.0460192 0 0 0 1,0.6875 l 4.125,0 a 1.0460192,1.0460192 0 0 0 0.3125,-0.0312 1.0460192,1.0460192 0 0 0 0.0312,0 1.0460192,1.0460192 0 0 0 0.34375,0.0312 l 3.9375,0 a 1.0460192,1.0460192 0 0 0 1.03125,-1.03125 l 0,-10.6875 3.9375,0 c 3.421,10e-6 6.16873,-0.73808 8.09375,-2.4375 0.92697,-0.812 1.58287,-1.83214 2.0625,-3 l 0,16.125 a 1.0460192,1.0460192 0 0 0 1.03125,1.03125 l 3.96875,0 a 1.0460192,1.0460192 0 0 0 1.03125,-1.03125 l 0,-12.84375 12.25,0 0,12.84375 a 1.0460192,1.0460192 0 0 0 1.03125,1.03125 l 3.96875,0 a 1.0460192,1.0460192 0 0 0 1.03125,-1.03125 l 0,-29.15625 A 1.0460192,1.0460192 0 0 0 736.8125,575.625 l -3.96875,0 a 1.0460192,1.0460192 0 0 0 -1.03125,1.03125 l 0,10.9375 -12.25,0 0,-10.9375 a 1.0460192,1.0460192 0 0 0 -1.03125,-1.03125 l -3.96875,0 a 1.0460192,1.0460192 0 0 0 -1.03125,1.03125 l 0,4.4375 c -0.47973,-1.16358 -1.13597,-2.18837 -2.0625,-3 -1.92222,-1.71192 -4.66887,-2.46872 -8.09375,-2.46875 l -8.90625,0 a 1.0460192,1.0460192 0 0 0 -1.03125,1.03125 l 0,25.34375 -9.8125,-25.71875 a 1.0460192,1.0460192 0 0 0 -0.96875,-0.65625 l -4.46875,0 a 1.0460192,1.0460192 0 0 0 -0.96875,0.65625 l -10.5,27.5 L 663.5,597.375 c -0.82824,-1.68316 -1.67772,-2.99962 -2.5625,-4.03125 -0.005,-0.006 0.005,-0.0256 0,-0.0312 -0.33868,-0.39796 -0.69584,-0.72338 -1.0625,-1.03125 0.9407,-0.54075 1.76749,-1.1933 2.375,-2.0625 1.00423,-1.41508 1.46873,-3.16007 1.46875,-5.15625 -2e-5,-3.01779 -0.90774,-5.50742 -2.8125,-7.125 -1.90255,-1.61561 -4.64515,-2.31247 -8.125,-2.3125 l -8.90625,0 a 1.0460192,1.0460192 0 0 0 -0.21875,0 z m 95.71875,0 a 1.0460192,1.0460192 0 0 0 -0.8125,1.03125 l 0,29.15625 a 1.0460192,1.0460192 0 0 0 1.03125,1.03125 l 3.9375,0 a 1.0460192,1.0460192 0 0 0 1.03125,-1.03125 l 0,-29.15625 a 1.0460192,1.0460192 0 0 0 -1.03125,-1.03125 l -3.9375,0 a 1.0460192,1.0460192 0 0 0 -0.21875,0 z m -90.53125,5.3125 3.9375,0 c 1.73961,3e-5 2.87856,0.41499 3.59375,1.0625 0.72114,0.63464 1.12498,1.55799 1.125,3.0625 -2e-5,1.50456 -0.39163,2.42882 -1.125,3.09375 -0.71519,0.64754 -1.85415,1.06252 -3.59375,1.0625 l -3.9375,0 0,-8.28125 z m 50.59375,0 3.9375,0 c 1.65098,3e-5 2.75487,0.42023 3.53125,1.15625 0.78072,0.74019 1.21873,1.74774 1.21875,3.28125 -2e-5,1.54814 -0.44289,2.57695 -1.21875,3.3125 -0.77638,0.73605 -1.88028,1.15626 -3.53125,1.15625 l -3.9375,0 0,-8.90625 z m -19.03125,2.625 3.875,10.46875 -7.71875,0 3.84375,-10.46875 z" />
    <path
       sodipodi:type="inkscape:offset"
       inkscape:radius="2.0203052"
       inkscape:original="M 630.78125 576.125 C 626.22395 576.12503 622.64062 577.45576 620.0625 580.125 C 617.49739 582.78127 616.21875 586.51564 616.21875 591.28125 C 616.21875 596.03386 617.49739 599.73699 620.0625 602.40625 C 622.64062 605.0625 626.22395 606.375 630.78125 606.375 C 632.86456 606.375 634.82029 606.10937 636.65625 605.5625 C 638.49216 605.0026 640.16404 604.17448 641.6875 603.09375 L 641.6875 590.59375 L 631.34375 590.59375 L 631.34375 593.84375 L 637.78125 593.84375 L 637.78125 601.65625 C 636.90883 602.16407 635.93748 602.53386 634.84375 602.78125 C 633.74998 603.01563 632.48696 603.15625 631.09375 603.15625 C 627.52603 603.15625 624.85936 602.14844 623.0625 600.15625 C 621.27864 598.16407 620.37499 595.21355 620.375 591.28125 C 620.37499 587.33596 621.27864 584.36721 623.0625 582.375 C 624.85936 580.38284 627.52603 579.37503 631.09375 579.375 C 632.90363 579.37503 634.6406 579.68753 636.28125 580.3125 C 637.92185 580.93752 639.47914 581.85679 640.9375 583.09375 L 640.9375 578.90625 C 639.49216 577.99482 637.90623 577.31253 636.1875 576.84375 C 634.48175 576.37503 632.68227 576.12503 630.78125 576.125 z M 775.0625 576.125 C 770.64843 576.12503 767.16405 577.4792 764.625 580.1875 C 762.08593 582.88284 760.84375 586.59377 760.84375 591.28125 C 760.84375 595.95574 762.08593 599.63542 764.625 602.34375 C 767.16405 605.03906 770.64843 606.375 775.0625 606.375 C 776.78123 606.375 778.40102 606.15625 779.9375 605.6875 C 781.48696 605.21875 782.96352 604.5 784.34375 603.5625 L 784.34375 599.46875 C 783.0156 600.70573 781.60414 601.60678 780.09375 602.21875 C 778.59633 602.83073 777.00519 603.15625 775.3125 603.15625 C 771.97915 603.15625 769.42707 602.125 767.65625 600.09375 C 765.88541 598.04949 764.99999 595.12241 765 591.28125 C 764.99999 587.4271 765.88541 584.46877 767.65625 582.4375 C 769.42707 580.39325 771.97915 579.37503 775.3125 579.375 C 777.00519 579.37503 778.59633 579.6693 780.09375 580.28125 C 781.60414 580.89325 783.0156 581.82554 784.34375 583.0625 L 784.34375 578.90625 C 782.98956 577.9818 781.54946 577.29951 780 576.84375 C 778.46352 576.37503 776.80727 576.12503 775.0625 576.125 z M 798.40625 576.125 C 795.21614 576.12503 792.72916 576.89065 790.90625 578.375 C 789.09635 579.8594 788.1875 581.89065 788.1875 584.46875 C 788.1875 586.69533 788.84114 588.40627 790.15625 589.65625 C 791.47135 590.90626 793.58853 591.85158 796.53125 592.4375 L 798.9375 592.90625 C 800.94269 593.30991 802.37759 593.91147 803.25 594.71875 C 804.1354 595.52605 804.59373 596.63022 804.59375 598.0625 C 804.59373 599.70313 803.97394 600.95834 802.75 601.84375 C 801.52603 602.72917 799.78384 603.1875 797.53125 603.1875 C 796.04686 603.1875 794.53645 602.95573 793 602.5 C 791.46354 602.04427 789.88281 601.36719 788.28125 600.46875 L 788.28125 604.53125 C 789.94791 605.14323 791.57551 605.59375 793.125 605.90625 C 794.68749 606.21875 796.15103 606.375 797.53125 606.375 C 801.19009 606.375 803.95571 605.64583 805.84375 604.1875 C 807.74477 602.72917 808.71873 600.60678 808.71875 597.78125 C 808.71873 595.41147 807.99998 593.53126 806.59375 592.125 C 805.2005 590.70574 803.03644 589.71616 800.09375 589.15625 L 797.71875 588.65625 C 795.55728 588.25262 794.06249 587.71356 793.28125 587.0625 C 792.51301 586.39846 792.15624 585.44533 792.15625 584.15625 C 792.15624 582.61981 792.71614 581.42711 793.875 580.59375 C 795.04687 579.76044 796.72655 579.34378 798.875 579.34375 C 800.11196 579.34378 801.39061 579.52346 802.71875 579.875 C 804.04686 580.22659 805.44008 580.75263 806.9375 581.46875 L 806.9375 577.625 C 805.45311 577.13024 804.013 576.74742 802.59375 576.5 C 801.17446 576.25263 799.77342 576.12503 798.40625 576.125 z M 646.375 576.65625 L 646.375 605.8125 L 650.34375 605.8125 L 650.34375 593.5 L 654.625 593.5 C 656.18749 593.50001 657.41405 593.83074 658.3125 594.46875 C 659.22394 595.10678 660.16144 596.39063 661.125 598.34375 L 664.875 605.8125 L 669.09375 605.8125 L 665.09375 597.84375 C 664.28644 596.20313 663.49477 594.93751 662.6875 594 C 661.89321 593.06251 661.06509 592.44272 660.21875 592.15625 C 661.84633 591.68751 663.09113 590.83595 663.9375 589.625 C 664.79685 588.41408 665.21873 586.89846 665.21875 585.0625 C 665.21873 582.25002 664.3906 580.14325 662.75 578.75 C 661.10936 577.3568 658.61457 576.65628 655.28125 576.65625 L 646.375 576.65625 z M 683.75 576.65625 L 672.59375 605.8125 L 676.78125 605.8125 L 679.4375 598.34375 L 692.5625 598.34375 L 695.21875 605.8125 L 699.3125 605.8125 L 688.21875 576.65625 L 683.75 576.65625 z M 702.5625 576.65625 L 702.5625 605.8125 L 706.5 605.8125 L 706.5 594.09375 L 711.46875 594.09375 C 714.73696 594.09376 717.20831 593.37762 718.875 591.90625 C 720.55467 590.43491 721.37498 588.25262 721.375 585.375 C 721.37498 582.52346 720.55467 580.34638 718.875 578.875 C 717.20831 577.39065 714.73696 576.65628 711.46875 576.65625 L 702.5625 576.65625 z M 725.6875 576.65625 L 725.6875 605.8125 L 729.625 605.8125 L 729.625 591.9375 L 743.96875 591.9375 L 743.96875 605.8125 L 747.90625 605.8125 L 747.90625 576.65625 L 743.96875 576.65625 L 743.96875 588.625 L 729.625 588.625 L 729.625 576.65625 L 725.6875 576.65625 z M 752.71875 576.65625 L 752.71875 605.8125 L 756.6875 605.8125 L 756.6875 576.65625 L 752.71875 576.65625 z M 650.34375 579.90625 L 655.28125 579.90625 C 657.18228 579.90628 658.63019 580.34638 659.59375 581.21875 C 660.57029 582.07815 661.06248 583.35679 661.0625 585.0625 C 661.06248 586.76825 660.57029 588.0521 659.59375 588.9375 C 658.63019 589.80991 657.18228 590.25002 655.28125 590.25 L 650.34375 590.25 L 650.34375 579.90625 z M 706.5 579.90625 L 711.46875 579.90625 C 713.30467 579.90628 714.71613 580.39325 715.71875 581.34375 C 716.72134 582.29429 717.21873 583.63023 717.21875 585.375 C 717.21873 587.13283 716.72134 588.487 715.71875 589.4375 C 714.71613 590.38804 713.30467 590.87501 711.46875 590.875 L 706.5 590.875 L 706.5 579.90625 z M 685.96875 580.5625 L 691.34375 595.0625 L 680.625 595.0625 L 685.96875 580.5625 z "
       xlink:href="#text2840"
       style="font-size:40px;font-style:normal;font-weight:normal;fill:#000000;fill-opacity:1;stroke:none;font-family:Bitstream Vera Sans"
       id="path2850"
       inkscape:href="#text2840"
       d="m 630.78125,574.09375 c -4.95058,3e-5 -9.19261,1.52426 -12.1875,4.625 -2.98934,3.09557 -4.40625,7.43552 -4.40625,12.5625 0,5.11497 1.42671,9.43073 4.40625,12.53125 a 2.0205072,2.0205072 0 0 0 0.0312,0 c 2.99808,3.08894 7.21105,4.59375 12.15625,4.59375 2.25504,0 4.39688,-0.29842 6.4375,-0.90625 a 2.0205072,2.0205072 0 0 0 0.0312,0 c 1.65724,-0.50541 3.16227,-1.26391 4.59375,-2.15625 l 0,0.46875 a 2.0205072,2.0205072 0 0 0 2.03125,2.03125 l 3.9375,0 a 2.0205072,2.0205072 0 0 0 2.03125,-2.03125 l 0,-10.28125 2.25,0 c 1.27741,10e-6 2.07179,0.26748 2.53125,0.59375 0.40156,0.2811 1.26731,1.32314 2.15625,3.125 l 3.75,7.46875 a 2.0205072,2.0205072 0 0 0 1.8125,1.125 l 4.21875,0 a 2.0205072,2.0205072 0 0 0 0.1875,-0.0312 2.0205072,2.0205072 0 0 0 0.0312,0 2.0205072,2.0205072 0 0 0 0.28125,0.0312 l 4.15625,0 A 2.0205072,2.0205072 0 0 0 673.125,606.5 l 2.1875,-6.125 10.25,0 2.1875,6.125 a 2.0205072,2.0205072 0 0 0 1.90625,1.34375 l 4.125,0 a 2.0205072,2.0205072 0 0 0 0.28125,-0.0312 2.0205072,2.0205072 0 0 0 0.40625,0.0312 l 3.9375,0 a 2.0205072,2.0205072 0 0 0 2.03125,-2.03125 l 0,-9.6875 2.9375,0 c 3.55217,10e-6 6.55456,-0.81992 8.71875,-2.71875 l 0.0312,0 c 0.15019,-0.13231 0.26682,-0.29602 0.40625,-0.4375 l 0,12.84375 a 2.0205072,2.0205072 0 0 0 2.03125,2.03125 l 3.96875,0 a 2.0205072,2.0205072 0 0 0 2.03125,-2.03125 l 0,-11.84375 10.25,0 0,11.84375 a 2.0205072,2.0205072 0 0 0 2.03125,2.03125 l 3.96875,0 a 2.0205072,2.0205072 0 0 0 1.375,-0.59375 2.0205072,2.0205072 0 0 0 1.40625,0.59375 l 3.9375,0 a 2.0205072,2.0205072 0 0 0 2.03125,-2.03125 l 0,-6.90625 c 0.71439,1.7956 1.67366,3.43108 2.96875,4.8125 2.93747,3.11825 7.05329,4.6875 11.875,4.6875 1.89015,0 3.74495,-0.24582 5.5,-0.78125 1.73243,-0.5241 3.31047,-1.36512 4.8125,-2.375 a 2.0205072,2.0205072 0 0 0 1.21875,1.1875 c 1.765,0.64809 3.4754,1.10481 5.125,1.4375 1.6734,0.33468 3.27981,0.53125 4.8125,0.53125 3.91538,0 7.14778,-0.79444 9.53125,-2.625 0.0118,-0.009 0.0195,-0.0221 0.0312,-0.0312 2.36494,-1.83299 3.65623,-4.69525 3.65625,-7.96875 -2e-5,-2.76859 -0.93164,-5.26431 -2.71875,-7.0625 -0.006,-0.006 -0.0254,0.006 -0.0312,0 -1.7962,-1.81988 -4.34821,-2.95686 -7.53125,-3.5625 l 0,0.0312 -2.34375,-0.5 a 2.0205072,2.0205072 0 0 0 -0.0312,-0.0312 c -1.99157,-0.3719 -3.25628,-0.96064 -3.5,-1.15625 -0.26754,-0.23539 -0.40626,-0.4466 -0.40625,-1.34375 -10e-6,-1.02293 0.21004,-1.43987 0.84375,-1.90625 0.0141,-0.0103 0.0168,-0.0208 0.0312,-0.0312 0.69356,-0.48033 1.94947,-0.84372 3.8125,-0.84375 1.04135,3e-5 2.12981,0.12446 3.3125,0.4375 1.18408,0.31346 2.4702,0.79692 3.875,1.46875 a 2.0205072,2.0205072 0 0 0 2.90625,-1.8125 l 0,-3.84375 a 2.0205072,2.0205072 0 0 0 -1.40625,-1.90625 c -1.55968,-0.51985 -3.0862,-0.95049 -4.625,-1.21875 -1.52507,-0.26581 -3.0384,-0.40622 -4.53125,-0.40625 -3.51335,3e-5 -6.52444,0.88108 -8.78125,2.71875 -0.96304,0.78984 -1.6821,1.76946 -2.25,2.84375 l 0,-0.75 A 2.0205072,2.0205072 0 0 0 770.8125,577.25 c -1.51484,-1.03412 -3.13714,-1.82953 -4.875,-2.34375 -0.01,-0.003 -0.0217,0.003 -0.0312,0 -1.72407,-0.52277 -3.57298,-0.81247 -5.5,-0.8125 -4.82726,3e-5 -8.94066,1.58881 -11.875,4.71875 -1.30078,1.38084 -2.25424,3.00798 -2.96875,4.8125 l 0,-6.96875 a 2.0205072,2.0205072 0 0 0 -2.03125,-2.03125 l -3.9375,0 a 2.0205072,2.0205072 0 0 0 -1.40625,0.5625 2.0205072,2.0205072 0 0 0 -1.375,-0.5625 l -3.96875,0 a 2.0205072,2.0205072 0 0 0 -2.03125,2.03125 l 0,9.9375 -10.25,0 0,-9.9375 a 2.0205072,2.0205072 0 0 0 -2.03125,-2.03125 l -3.96875,0 a 2.0205072,2.0205072 0 0 0 -2.03125,2.03125 l 0,1.15625 c -0.1408,-0.14302 -0.25448,-0.3038 -0.40625,-0.4375 -0.007,-0.006 -0.0245,0.006 -0.0312,0 -2.15886,-1.91092 -5.1591,-2.74997 -8.71875,-2.75 l -8.90625,0 a 2.0205072,2.0205072 0 0 0 -2.03125,2.03125 l 0,20 -7.90625,-20.71875 a 2.0205072,2.0205072 0 0 0 -1.875,-1.3125 l -4.46875,0 a 2.0205072,2.0205072 0 0 0 -1.875,1.3125 l -9.71875,25.4375 -2.21875,-4.4375 c -0.85659,-1.74077 -1.71975,-3.12612 -2.6875,-4.25 -0.0898,-0.10597 -0.18894,-0.17986 -0.28125,-0.28125 0.60593,-0.48169 1.21238,-0.98993 1.65625,-1.625 1.13921,-1.60527 1.65623,-3.57331 1.65625,-5.71875 -2e-5,-3.20906 -1.03664,-6.01717 -3.1875,-7.84375 -2.14655,-1.82281 -5.13363,-2.59372 -8.75,-2.59375 l -8.90625,0 a 2.0205072,2.0205072 0 0 0 -2.03125,2.03125 l 0,0.46875 c -1.58569,-0.97958 -3.28594,-1.71715 -5.125,-2.21875 -1.87882,-0.51628 -3.85938,-0.81247 -5.9375,-0.8125 z m 0.3125,7.3125 c 1.57735,3e-5 3.06202,0.24539 4.46875,0.78125 1.42221,0.54182 2.76865,1.34007 4.0625,2.4375 a 2.0205072,2.0205072 0 0 0 2.21875,0.28125 l 0,3.6875 a 2.0205072,2.0205072 0 0 0 -0.15625,-0.0312 l -10.34375,0 a 2.0205072,2.0205072 0 0 0 -2.03125,2.03125 l 0,3.25 a 2.0205072,2.0205072 0 0 0 2.03125,2.03125 l 4.40625,0 0,4.40625 c -0.44018,0.18027 -0.81345,0.4113 -1.34375,0.53125 -0.94408,0.2023 -2.05523,0.3125 -3.3125,0.3125 -3.18726,0 -5.17326,-0.80689 -6.53125,-2.3125 -1.34874,-1.50625 -2.15626,-3.90847 -2.15625,-7.53125 -10e-6,-3.63679 0.81158,-6.06077 2.15625,-7.5625 1.35799,-1.50559 3.34399,-2.31247 6.53125,-2.3125 z m 129.5625,0 c 1.45856,3e-5 2.78781,0.24184 4.03125,0.75 1.25455,0.50834 2.44876,1.27952 3.625,2.375 a 2.0205072,2.0205072 0 0 0 2.25,0.34375 c 0.0889,2.45128 0.88662,4.68682 2.53125,6.25 1.73124,1.64556 4.20613,2.6503 7.375,3.28125 a 2.0205072,2.0205072 0 0 0 0.0312,0 l 2.375,0.46875 0.0312,0 c 1.78135,0.36391 2.88688,0.91865 3.3125,1.3125 a 2.0205072,2.0205072 0 0 0 0,0.0312 c 0.46417,0.42323 0.68749,0.84245 0.6875,1.84375 -10e-6,1.13183 -0.24831,1.61247 -1,2.15625 -0.75458,0.54586 -2.0527,0.9375 -4.03125,0.9375 -1.27409,0 -2.59933,-0.18756 -3.96875,-0.59375 -1.37562,-0.40802 -2.79666,-1.01093 -4.28125,-1.84375 A 2.0205072,2.0205072 0 0 0 771.59375,598.75 2.0205072,2.0205072 0 0 0 768.3125,598 c -1.16382,1.08393 -2.34829,1.82646 -3.625,2.34375 -1.26572,0.51729 -2.59758,0.78125 -4.03125,0.78125 -2.91666,0 -4.76343,-0.78193 -6.125,-2.34375 -1.36416,-1.57478 -2.15626,-3.96931 -2.15625,-7.5 -10e-6,-3.54473 0.8047,-5.98093 2.15625,-7.53125 1.35923,-1.56911 3.20306,-2.34372 6.125,-2.34375 z m -110.8125,0.53125 2.9375,0 c 1.58924,3e-5 2.45369,0.34323 2.9375,0.78125 a 2.0205072,2.0205072 0 0 0 0,0.0312 c 0.48321,0.42525 0.78123,0.99542 0.78125,2.3125 -2e-5,1.31713 -0.27442,1.91547 -0.78125,2.375 -0.48381,0.43804 -1.3483,0.78127 -2.9375,0.78125 l -2.9375,0 0,-6.28125 z m 50.59375,0 2.9375,0 c 1.47869,2e-5 2.30938,0.33878 2.875,0.875 0.57403,0.54423 0.87498,1.2258 0.875,2.5625 -2e-5,1.35279 -0.31037,2.05846 -0.875,2.59375 -0.56562,0.53624 -1.39634,0.87501 -2.875,0.875 l -2.9375,0 0,-6.90625 z m -20.03125,4.46875 2.46875,6.625 -4.90625,0 2.4375,-6.625 z" />
    <text
       xml:space="preserve"
       style="font-size:40px;font-style:normal;font-weight:normal;fill:#d40000;fill-opacity:1;stroke:none;font-family:Bitstream Vera Sans"
       x="613.97174"
       y="605.82117"
       id="text2840"><tspan
         sodipodi:role="line"
         id="tspan2842"
         x="613.97174"
         y="605.82117"
         dx="0 -2.5253813 2.0203049 -1.0101523 -1.0101523 -3.0304577 -2.0203052 -1.0101526">GRAPHICS</tspan></text>
  </g>
</svg>
